<svg width="722" height="617" viewBox="0 0 722 617" fill="none" xmlns="http://www.w3.org/2000/svg">
<rect x="6" width="710" height="582" rx="10" fill="#E98248"/>
<g filter="url(#filter0_d_780_5485)">
<g clip-path="url(#clip0_780_5485)">
<rect x="61" y="52" width="600" height="420" rx="15.2143" fill="white"/>
<rect width="600" height="33.3299" transform="translate(61 52)" fill="white"/>
<circle cx="97.665" cy="68.665" r="6.66495" fill="#FF4757"/>
<circle cx="117.337" cy="68.665" r="6.66495" fill="#FFCC4D"/>
<circle cx="137.007" cy="68.665" r="6.66495" fill="#36CC84"/>
<rect x="76" y="85" width="570" height="373" rx="12" fill="#3A4A59"/>
<path d="M250.061 271.5C250.061 256.346 262.345 244.062 277.499 244.062V244.062C292.653 244.062 304.938 256.346 304.938 271.5V271.5C304.938 286.654 292.653 298.939 277.499 298.939V298.939C262.345 298.939 250.061 286.654 250.061 271.5V271.5Z" fill="#5D95E8" fill-opacity="0.2"/>
<path d="M277.501 271.501C280.101 271.501 282.208 269.394 282.208 266.794C282.208 264.194 280.101 262.086 277.501 262.086C274.901 262.086 272.793 264.194 272.793 266.794C272.793 269.394 274.901 271.501 277.501 271.501Z" fill="#5D95E8"/>
<path d="M277.502 273.855C272.785 273.855 268.943 277.019 268.943 280.917C268.943 281.181 269.15 281.388 269.414 281.388H285.59C285.853 281.388 286.06 281.181 286.06 280.917C286.06 277.019 282.219 273.855 277.502 273.855Z" fill="#5D95E8"/>
<path d="M277.499 296.829C263.511 296.829 252.171 285.489 252.171 271.5H247.95C247.95 287.82 261.18 301.05 277.499 301.05V296.829ZM302.828 271.5C302.828 285.489 291.488 296.829 277.499 296.829V301.05C293.819 301.05 307.049 287.82 307.049 271.5H302.828ZM277.499 246.172C291.488 246.172 302.828 257.512 302.828 271.5H307.049C307.049 255.181 293.819 241.951 277.499 241.951V246.172ZM277.499 241.951C261.18 241.951 247.95 255.181 247.95 271.5H252.171C252.171 257.512 263.511 246.172 277.499 246.172V241.951Z" fill="#5D95E8"/>
<rect x="240.563" y="234.563" width="73.8738" height="73.8738" rx="36.9369" stroke="#5D95E8" stroke-opacity="0.5" stroke-width="2.11068"/>
<rect x="230.01" y="224.009" width="94.9807" height="94.9807" rx="47.4903" stroke="#5D95E8" stroke-opacity="0.2" stroke-width="2.11068"/>
<rect x="106.528" y="115.528" width="341.945" height="311.945" rx="15.4723" stroke="white" stroke-opacity="0.2" stroke-width="1.05534"/>
<path d="M513.061 189.25C513.061 174.096 525.345 161.812 540.499 161.812V161.812C555.653 161.812 567.938 174.096 567.938 189.25V189.25C567.938 204.404 555.653 216.689 540.499 216.689V216.689C525.345 216.689 513.061 204.404 513.061 189.25V189.25Z" fill="#FFCC4D" fill-opacity="0.2"/>
<path d="M540.501 189.251C543.101 189.251 545.208 187.144 545.208 184.544C545.208 181.944 543.101 179.836 540.501 179.836C537.901 179.836 535.793 181.944 535.793 184.544C535.793 187.144 537.901 189.251 540.501 189.251Z" fill="#FFCC4D"/>
<path d="M540.502 191.605C535.785 191.605 531.943 194.769 531.943 198.667C531.943 198.931 532.15 199.138 532.414 199.138H548.59C548.853 199.138 549.06 198.931 549.06 198.667C549.06 194.769 545.219 191.605 540.502 191.605Z" fill="#FFCC4D"/>
<rect x="465.528" y="115.528" width="149.945" height="147.445" rx="20.5791" stroke="#B8C1C9" stroke-opacity="0.2" stroke-width="1.05534"/>
<path d="M513.061 353.75C513.061 338.596 525.345 326.312 540.499 326.312V326.312C555.653 326.312 567.938 338.596 567.938 353.75V353.75C567.938 368.904 555.653 381.189 540.499 381.189V381.189C525.345 381.189 513.061 368.904 513.061 353.75V353.75Z" fill="#FFCC4D" fill-opacity="0.2"/>
<path d="M540.501 353.751C543.101 353.751 545.208 351.644 545.208 349.044C545.208 346.444 543.101 344.336 540.501 344.336C537.901 344.336 535.793 346.444 535.793 349.044C535.793 351.644 537.901 353.751 540.501 353.751Z" fill="#FFCC4D"/>
<path d="M540.502 356.105C535.785 356.105 531.943 359.269 531.943 363.167C531.943 363.431 532.15 363.638 532.414 363.638H548.59C548.853 363.638 549.06 363.431 549.06 363.167C549.06 359.269 545.219 356.105 540.502 356.105Z" fill="#FFCC4D"/>
<rect x="465.528" y="280.028" width="149.945" height="147.445" rx="20.5791" stroke="white" stroke-opacity="0.2" stroke-width="1.05534"/>
</g>
</g>
<g filter="url(#filter1_d_780_5485)">
<rect x="117" y="307" width="230.31" height="241" rx="14.2677" fill="white"/>
<path d="M142.415 337.528H140.325L139.446 335.106H135.669L134.79 337.528H132.699L136.822 326.875H138.336L142.415 337.528ZM138.884 333.333L137.572 329.686L136.246 333.333H138.884ZM146.072 337.716C144.976 337.716 144.111 337.413 143.477 336.808C142.852 336.192 142.54 335.342 142.54 334.256V329.701H144.428V334.256C144.428 334.785 144.573 335.207 144.861 335.525C145.159 335.842 145.562 336 146.072 336C146.591 336 146.994 335.842 147.283 335.525C147.581 335.207 147.73 334.785 147.73 334.256V329.701H149.618V334.256C149.618 335.342 149.301 336.192 148.667 336.808C148.042 337.413 147.177 337.716 146.072 337.716ZM155.649 335.597L156.24 337.067C155.625 337.499 154.871 337.716 153.977 337.716C152.189 337.716 151.296 336.697 151.296 334.66V331.286H149.998V329.701H151.325V326.933H153.184V329.701H155.808V331.286H153.184V334.588C153.184 335.529 153.564 336 154.323 336C154.765 336 155.207 335.866 155.649 335.597ZM155.971 333.607C155.971 332.454 156.36 331.483 157.139 330.695C157.936 329.898 158.941 329.499 160.151 329.499C161.372 329.499 162.371 329.898 163.15 330.695C163.938 331.483 164.332 332.454 164.332 333.607C164.332 334.78 163.938 335.76 163.15 336.548C162.371 337.336 161.372 337.73 160.151 337.73C158.931 337.73 157.927 337.336 157.139 336.548C156.36 335.76 155.971 334.78 155.971 333.607ZM162.444 333.607C162.444 332.944 162.222 332.387 161.78 331.935C161.329 331.474 160.786 331.243 160.151 331.243C159.517 331.243 158.974 331.474 158.522 331.935C158.08 332.387 157.859 332.944 157.859 333.607C157.859 334.28 158.08 334.842 158.522 335.294C158.974 335.755 159.517 335.986 160.151 335.986C160.786 335.986 161.329 335.755 161.78 335.294C162.222 334.842 162.444 334.28 162.444 333.607ZM174.457 329.484C175.379 329.484 176.139 329.782 176.734 330.378C177.33 330.974 177.628 331.786 177.628 332.814V337.528H175.74V333.16C175.74 332.536 175.591 332.055 175.293 331.719C175.005 331.382 174.61 331.214 174.111 331.214C173.582 331.214 173.15 331.397 172.813 331.762C172.477 332.127 172.309 332.613 172.309 333.218V337.528H170.435V333.175C170.435 332.569 170.281 332.094 169.973 331.748C169.676 331.392 169.277 331.214 168.777 331.214C168.248 331.214 167.811 331.402 167.465 331.776C167.129 332.142 166.961 332.627 166.961 333.232V337.528H165.087V329.701H166.932V330.825C167.153 330.412 167.475 330.085 167.898 329.845C168.33 329.605 168.801 329.484 169.31 329.484C169.839 329.494 170.31 329.619 170.723 329.859C171.136 330.099 171.444 330.441 171.646 330.883C171.924 330.441 172.314 330.099 172.813 329.859C173.313 329.609 173.861 329.484 174.457 329.484ZM184.736 330.695V329.701H186.524V337.528H184.736V336.562C184.054 337.331 183.204 337.716 182.185 337.716C181.06 337.716 180.133 337.322 179.403 336.534C178.672 335.746 178.307 334.761 178.307 333.578C178.307 332.396 178.672 331.426 179.403 330.666C180.143 329.898 181.07 329.513 182.185 329.513C183.184 329.513 184.035 329.907 184.736 330.695ZM184.78 333.607C184.78 332.944 184.563 332.382 184.131 331.921C183.698 331.459 183.146 331.229 182.473 331.229C181.8 331.229 181.248 331.459 180.815 331.921C180.393 332.392 180.181 332.954 180.181 333.607C180.181 334.27 180.393 334.837 180.815 335.308C181.248 335.77 181.8 336 182.473 336C183.146 336 183.698 335.77 184.131 335.308C184.563 334.847 184.78 334.28 184.78 333.607ZM192.663 335.597L193.254 337.067C192.639 337.499 191.884 337.716 190.99 337.716C189.203 337.716 188.309 336.697 188.309 334.66V331.286H187.012V329.701H188.338V326.933H190.197V329.701H192.821V331.286H190.197V334.588C190.197 335.529 190.577 336 191.336 336C191.778 336 192.22 335.866 192.663 335.597ZM194.524 328.764C194.178 328.764 193.89 328.653 193.659 328.432C193.428 328.211 193.313 327.927 193.313 327.582C193.313 327.245 193.428 326.966 193.659 326.745C193.899 326.515 194.188 326.399 194.524 326.399C194.86 326.399 195.139 326.515 195.36 326.745C195.591 326.966 195.706 327.245 195.706 327.582C195.706 327.927 195.591 328.211 195.36 328.432C195.139 328.653 194.86 328.764 194.524 328.764ZM195.447 329.701V337.528H193.558V329.701H195.447ZM200.315 337.701C199.113 337.701 198.119 337.317 197.331 336.548C196.562 335.779 196.177 334.799 196.177 333.607C196.177 332.416 196.567 331.435 197.345 330.666C198.133 329.898 199.142 329.513 200.372 329.513C201.18 329.513 201.905 329.705 202.549 330.09C203.203 330.465 203.688 330.988 204.005 331.661L202.477 332.483C201.977 331.656 201.285 331.243 200.401 331.243C199.728 331.243 199.166 331.469 198.715 331.921C198.272 332.363 198.051 332.925 198.051 333.607C198.051 334.28 198.268 334.842 198.7 335.294C199.133 335.746 199.68 335.971 200.344 335.971C200.776 335.971 201.184 335.861 201.569 335.64C201.963 335.409 202.256 335.111 202.448 334.746L203.976 335.64C203.63 336.274 203.131 336.779 202.477 337.154C201.833 337.519 201.112 337.701 200.315 337.701ZM210.53 330.695V329.701H212.317V337.528H210.53V336.562C209.847 337.331 208.997 337.716 207.978 337.716C206.854 337.716 205.926 337.322 205.196 336.534C204.466 335.746 204.1 334.761 204.1 333.578C204.1 332.396 204.466 331.426 205.196 330.666C205.936 329.898 206.863 329.513 207.978 329.513C208.978 329.513 209.828 329.907 210.53 330.695ZM210.573 333.607C210.573 332.944 210.357 332.382 209.924 331.921C209.492 331.459 208.939 331.229 208.266 331.229C207.594 331.229 207.041 331.459 206.609 331.921C206.186 332.392 205.974 332.954 205.974 333.607C205.974 334.27 206.186 334.837 206.609 335.308C207.041 335.77 207.594 336 208.266 336C208.939 336 209.492 335.77 209.924 335.308C210.357 334.847 210.573 334.28 210.573 333.607ZM215.385 326.572V337.528H213.511V326.572H215.385ZM218.451 326.572V337.528H216.577V326.572H218.451ZM223.118 334.991L224.977 329.701H227.024L223.853 338.033C223.469 339.004 223.022 339.715 222.512 340.166C222.013 340.628 221.397 340.858 220.667 340.858C220.071 340.858 219.591 340.733 219.226 340.484L219.528 338.898C219.893 339.071 220.225 339.157 220.523 339.157C221.157 339.157 221.667 338.734 222.051 337.889L222.238 337.456L218.822 329.701H220.999L223.118 334.991ZM238.626 337.528H236.536L235.656 335.106H231.879L231 337.528H228.91L233.033 326.875H234.546L238.626 337.528ZM235.094 333.333L233.782 329.686L232.456 333.333H235.094ZM244.776 330.695V326.572H246.65V337.528H244.819V336.505C244.166 337.312 243.335 337.716 242.325 337.716C241.201 337.716 240.274 337.327 239.543 336.548C238.803 335.75 238.433 334.77 238.433 333.607C238.433 332.464 238.803 331.493 239.543 330.695C240.293 329.907 241.215 329.513 242.311 329.513C243.311 329.513 244.132 329.907 244.776 330.695ZM242.585 336C243.267 336 243.82 335.77 244.243 335.308C244.666 334.837 244.877 334.27 244.877 333.607C244.877 332.944 244.661 332.382 244.228 331.921C243.815 331.459 243.267 331.229 242.585 331.229C241.903 331.229 241.355 331.459 240.942 331.921C240.519 332.392 240.307 332.954 240.307 333.607C240.307 334.27 240.519 334.837 240.942 335.308C241.355 335.77 241.903 336 242.585 336ZM257.214 329.484C258.137 329.484 258.896 329.782 259.492 330.378C260.088 330.974 260.386 331.786 260.386 332.814V337.528H258.497V333.16C258.497 332.536 258.348 332.055 258.05 331.719C257.762 331.382 257.368 331.214 256.868 331.214C256.34 331.214 255.907 331.397 255.571 331.762C255.235 332.127 255.066 332.613 255.066 333.218V337.528H253.192V333.175C253.192 332.569 253.039 332.094 252.731 331.748C252.433 331.392 252.034 331.214 251.535 331.214C251.006 331.214 250.569 331.402 250.223 331.776C249.886 332.142 249.718 332.627 249.718 333.232V337.528H247.844V329.701H249.689V330.825C249.91 330.412 250.232 330.085 250.655 329.845C251.088 329.605 251.559 329.484 252.068 329.484C252.597 329.494 253.067 329.619 253.481 329.859C253.894 330.099 254.201 330.441 254.403 330.883C254.682 330.441 255.071 330.099 255.571 329.859C256.071 329.609 256.619 329.484 257.214 329.484ZM262.477 328.764C262.131 328.764 261.843 328.653 261.612 328.432C261.382 328.211 261.267 327.927 261.267 327.582C261.267 327.245 261.382 326.966 261.612 326.745C261.853 326.515 262.141 326.399 262.477 326.399C262.814 326.399 263.092 326.515 263.314 326.745C263.544 326.966 263.66 327.245 263.66 327.582C263.66 327.927 263.544 328.211 263.314 328.432C263.092 328.653 262.814 328.764 262.477 328.764ZM263.4 329.701V337.528H261.512V329.701H263.4ZM269.493 335.597L270.085 337.067C269.469 337.499 268.715 337.716 267.821 337.716C266.034 337.716 265.14 336.697 265.14 334.66V331.286H263.843V329.701H265.169V326.933H267.028V329.701H269.652V331.286H267.028V334.588C267.028 335.529 267.408 336 268.167 336C268.609 336 269.051 335.866 269.493 335.597Z" fill="#425A6F"/>
<path d="M320.064 344.693C314.301 344.693 309.617 340.009 309.617 334.246C309.617 328.484 314.301 323.8 320.064 323.8C325.826 323.8 330.51 328.484 330.51 334.246C330.51 340.009 325.826 344.693 320.064 344.693ZM320.064 325.257C315.108 325.257 311.075 329.29 311.075 334.246C311.075 339.202 315.108 343.235 320.064 343.235C325.02 343.235 329.053 339.202 329.053 334.246C329.053 329.29 325.02 325.257 320.064 325.257Z" fill="#818FA9"/>
<path d="M317.312 337.725C317.128 337.725 316.943 337.657 316.797 337.511C316.515 337.229 316.515 336.763 316.797 336.481L322.298 330.981C322.579 330.699 323.046 330.699 323.328 330.981C323.609 331.263 323.609 331.729 323.328 332.011L317.827 337.511C317.691 337.657 317.497 337.725 317.312 337.725Z" fill="#818FA9"/>
<path d="M322.813 337.725C322.628 337.725 322.443 337.657 322.298 337.511L316.797 332.011C316.515 331.729 316.515 331.263 316.797 330.981C317.079 330.699 317.546 330.699 317.827 330.981L323.328 336.481C323.609 336.763 323.609 337.229 323.328 337.511C323.182 337.657 322.997 337.725 322.813 337.725Z" fill="#818FA9"/>
<path fill-rule="evenodd" clip-rule="evenodd" d="M145.705 361.456C135.21 361.456 132.586 364.08 132.586 374.575C132.586 385.07 135.21 387.694 145.705 387.694C156.2 387.694 158.824 385.07 158.824 374.575C158.824 364.08 156.2 361.456 145.705 361.456Z" fill="#5D95E8"/>
<path d="M145.756 366.306C143.576 366.306 141.803 368.078 141.803 370.259C141.803 372.398 143.476 374.129 145.656 374.204C145.723 374.196 145.789 374.196 145.839 374.204C145.856 374.204 145.864 374.204 145.881 374.204C145.889 374.204 145.889 374.204 145.898 374.204C148.028 374.129 149.701 372.398 149.709 370.259C149.709 368.078 147.937 366.306 145.756 366.306Z" fill="white"/>
<path d="M149.986 376.417C147.664 374.869 143.877 374.869 141.538 376.417C140.481 377.124 139.898 378.081 139.898 379.105C139.898 380.129 140.481 381.078 141.53 381.777C142.695 382.559 144.226 382.95 145.758 382.95C147.289 382.95 148.821 382.559 149.986 381.777C151.034 381.069 151.617 380.121 151.617 379.089C151.609 378.065 151.034 377.116 149.986 376.417Z" fill="white"/>
<rect x="174.371" y="361.455" width="94.2621" height="11.6613" rx="5.83064" fill="#F2F6FC"/>
<rect x="174.371" y="377.976" width="67.0524" height="11.6613" rx="5.83064" fill="#F2F6FC"/>
<path fill-rule="evenodd" clip-rule="evenodd" d="M145.705 405.185C135.21 405.185 132.586 407.808 132.586 418.304C132.586 428.799 135.21 431.422 145.705 431.422C156.2 431.422 158.824 428.799 158.824 418.304C158.824 407.808 156.2 405.185 145.705 405.185Z" fill="#5D95E8"/>
<path d="M145.756 410.034C143.576 410.034 141.803 411.807 141.803 413.988C141.803 416.127 143.476 417.858 145.656 417.933C145.723 417.924 145.789 417.924 145.839 417.933C145.856 417.933 145.864 417.933 145.881 417.933C145.889 417.933 145.889 417.933 145.898 417.933C148.028 417.858 149.701 416.127 149.709 413.988C149.709 411.807 147.937 410.034 145.756 410.034Z" fill="white"/>
<path d="M149.986 420.145C147.664 418.597 143.877 418.597 141.538 420.145C140.481 420.853 139.898 421.81 139.898 422.834C139.898 423.857 140.481 424.806 141.53 425.505C142.695 426.288 144.226 426.679 145.758 426.679C147.289 426.679 148.821 426.288 149.986 425.505C151.034 424.798 151.617 423.849 151.617 422.817C151.609 421.793 151.034 420.845 149.986 420.145Z" fill="white"/>
<rect x="174.371" y="405.185" width="94.2621" height="11.6613" rx="5.83064" fill="#F2F6FC"/>
<rect x="174.371" y="421.705" width="67.0524" height="11.6613" rx="5.83064" fill="#F2F6FC"/>
<path fill-rule="evenodd" clip-rule="evenodd" d="M145.705 448.916C135.21 448.916 132.586 451.54 132.586 462.035C132.586 472.53 135.21 475.154 145.705 475.154C156.2 475.154 158.824 472.53 158.824 462.035C158.824 451.54 156.2 448.916 145.705 448.916Z" fill="#5D95E8"/>
<path d="M145.756 453.765C143.576 453.765 141.803 455.537 141.803 457.718C141.803 459.857 143.476 461.588 145.656 461.663C145.723 461.655 145.789 461.655 145.839 461.663C145.856 461.663 145.864 461.663 145.881 461.663C145.889 461.663 145.889 461.663 145.898 461.663C148.028 461.588 149.701 459.857 149.709 457.718C149.709 455.537 147.937 453.765 145.756 453.765Z" fill="white"/>
<path d="M149.986 463.876C147.664 462.328 143.877 462.328 141.538 463.876C140.481 464.583 139.898 465.54 139.898 466.564C139.898 467.588 140.481 468.537 141.53 469.236C142.695 470.018 144.226 470.409 145.758 470.409C147.289 470.409 148.821 470.018 149.986 469.236C151.034 468.528 151.617 467.58 151.617 466.548C151.609 465.524 151.034 464.575 149.986 463.876Z" fill="white"/>
<rect x="174.371" y="448.915" width="94.2621" height="11.6613" rx="5.83064" fill="#F2F6FC"/>
<rect x="174.371" y="465.436" width="67.0524" height="11.6613" rx="5.83064" fill="#F2F6FC"/>
<path fill-rule="evenodd" clip-rule="evenodd" d="M145.705 492.645C135.21 492.645 132.586 495.268 132.586 505.763C132.586 516.259 135.21 518.882 145.705 518.882C156.2 518.882 158.824 516.259 158.824 505.763C158.824 495.268 156.2 492.645 145.705 492.645Z" fill="#5D95E8"/>
<path d="M145.756 497.494C143.576 497.494 141.803 499.267 141.803 501.447C141.803 503.586 143.476 505.318 145.656 505.393C145.723 505.384 145.789 505.384 145.839 505.393C145.856 505.393 145.864 505.393 145.881 505.393C145.889 505.393 145.889 505.393 145.898 505.393C148.028 505.318 149.701 503.586 149.709 501.447C149.709 499.267 147.937 497.494 145.756 497.494Z" fill="white"/>
<path d="M149.986 507.605C147.664 506.057 143.877 506.057 141.538 507.605C140.481 508.313 139.898 509.27 139.898 510.294C139.898 511.317 140.481 512.266 141.53 512.965C142.695 513.748 144.226 514.139 145.758 514.139C147.289 514.139 148.821 513.748 149.986 512.965C151.034 512.258 151.617 511.309 151.617 510.277C151.609 509.253 151.034 508.304 149.986 507.605Z" fill="white"/>
<rect x="174.371" y="492.645" width="94.2621" height="11.6613" rx="5.83064" fill="#F2F6FC"/>
<rect x="174.371" y="509.165" width="67.0524" height="11.6613" rx="5.83064" fill="#F2F6FC"/>
</g>
<g filter="url(#filter2_d_780_5485)">
<rect x="389.311" y="416.899" width="230.31" height="109.81" rx="14.2677" fill="white"/>
<path fill-rule="evenodd" clip-rule="evenodd" d="M424.871 451.831C408.891 451.831 404.896 455.826 404.896 471.806C404.896 487.786 408.891 491.781 424.871 491.781C440.851 491.781 444.846 487.786 444.846 471.806C444.846 455.826 440.851 451.831 424.871 451.831Z" fill="#5D95E8"/>
<path d="M428.199 465.355C428.199 466.387 427.359 467.228 426.327 467.228H423.414C422.898 467.228 422.432 467.02 422.09 466.678C421.749 466.337 421.541 465.871 421.541 465.355C421.541 464.323 422.382 463.482 423.414 463.482H426.327C426.843 463.482 427.309 463.69 427.65 464.032C427.991 464.373 428.199 464.839 428.199 465.355Z" fill="white"/>
<path d="M430.556 466.004C430.364 465.846 430.148 465.721 429.915 465.63C429.673 465.538 429.432 465.73 429.382 465.979C429.099 467.402 427.842 468.476 426.328 468.476H423.415C422.582 468.476 421.8 468.152 421.209 467.561C420.776 467.128 420.477 466.579 420.36 465.988C420.31 465.738 420.061 465.538 419.819 465.638C418.854 466.029 418.213 466.911 418.213 468.684V476.799C418.213 479.296 419.703 480.128 421.542 480.128H428.2C430.04 480.128 431.529 479.296 431.529 476.799V468.684C431.529 467.328 431.155 466.495 430.556 466.004ZM421.542 472.013H424.871C425.212 472.013 425.495 472.296 425.495 472.638C425.495 472.979 425.212 473.262 424.871 473.262H421.542C421.201 473.262 420.918 472.979 420.918 472.638C420.918 472.296 421.201 472.013 421.542 472.013ZM428.2 476.591H421.542C421.201 476.591 420.918 476.308 420.918 475.967C420.918 475.625 421.201 475.342 421.542 475.342H428.2C428.542 475.342 428.825 475.625 428.825 475.967C428.825 476.308 428.542 476.591 428.2 476.591Z" fill="white"/>
<path d="M470.224 449.82H468.134L467.254 447.398H463.478L462.598 449.82H460.508L464.631 439.167H466.144L470.224 449.82ZM466.692 445.625L465.38 441.978L464.054 445.625H466.692ZM475.084 447.889L475.675 449.359C475.06 449.791 474.306 450.008 473.412 450.008C471.625 450.008 470.731 448.989 470.731 446.952V443.578H469.433V441.993H470.76V439.225H472.619V441.993H475.243V443.578H472.619V446.88C472.619 447.821 472.999 448.292 473.758 448.292C474.2 448.292 474.642 448.158 475.084 447.889ZM480.896 447.889L481.487 449.359C480.872 449.791 480.117 450.008 479.223 450.008C477.436 450.008 476.542 448.989 476.542 446.952V443.578H475.245V441.993H476.571V439.225H478.431V441.993H481.054V443.578H478.431V446.88C478.431 447.821 478.81 448.292 479.569 448.292C480.012 448.292 480.454 448.158 480.896 447.889ZM489.175 445.741C489.175 445.991 489.156 446.269 489.117 446.577H483.149C483.274 447.134 483.538 447.576 483.942 447.903C484.355 448.22 484.889 448.379 485.542 448.379C486.493 448.379 487.354 448.11 488.122 447.571L488.872 448.912C487.901 449.633 486.767 449.993 485.47 449.993C484.759 449.993 484.124 449.878 483.567 449.647C483.019 449.417 482.577 449.109 482.241 448.725C481.904 448.331 481.65 447.898 481.477 447.427C481.313 446.947 481.232 446.437 481.232 445.899C481.232 444.708 481.607 443.732 482.356 442.973C483.115 442.194 484.096 441.805 485.297 441.805C486.421 441.805 487.349 442.161 488.079 442.872C488.81 443.574 489.175 444.53 489.175 445.741ZM485.297 443.377C484.749 443.377 484.283 443.535 483.899 443.852C483.524 444.169 483.274 444.602 483.149 445.15H487.33C487.253 444.602 487.027 444.169 486.652 443.852C486.287 443.535 485.835 443.377 485.297 443.377ZM491.785 449.82H489.911V441.993H491.756V443.088C491.967 442.685 492.289 442.367 492.722 442.137C493.154 441.906 493.654 441.791 494.221 441.791C495.076 441.791 495.802 442.074 496.398 442.641C496.994 443.208 497.291 444.011 497.291 445.049V449.82H495.403V445.568C495.403 444.924 495.249 444.419 494.942 444.054C494.634 443.689 494.216 443.506 493.688 443.506C493.13 443.506 492.674 443.703 492.318 444.097C491.962 444.482 491.785 444.981 491.785 445.597V449.82ZM504.293 442.987V438.864H506.167V449.82H504.337V448.797C503.683 449.604 502.852 450.008 501.843 450.008C500.718 450.008 499.791 449.618 499.061 448.84C498.321 448.042 497.951 447.062 497.951 445.899C497.951 444.756 498.321 443.785 499.061 442.987C499.81 442.199 500.733 441.805 501.828 441.805C502.828 441.805 503.65 442.199 504.293 442.987ZM502.102 448.292C502.785 448.292 503.337 448.062 503.76 447.6C504.183 447.129 504.394 446.562 504.394 445.899C504.394 445.236 504.178 444.674 503.746 444.213C503.332 443.751 502.785 443.521 502.102 443.521C501.42 443.521 500.872 443.751 500.459 444.213C500.036 444.684 499.825 445.246 499.825 445.899C499.825 446.562 500.036 447.129 500.459 447.6C500.872 448.062 501.42 448.292 502.102 448.292ZM513.373 442.987V441.993H515.16V449.82H513.373V448.854C512.69 449.623 511.84 450.008 510.821 450.008C509.697 450.008 508.769 449.614 508.039 448.826C507.309 448.038 506.943 447.053 506.943 445.87C506.943 444.688 507.309 443.718 508.039 442.958C508.779 442.19 509.706 441.805 510.821 441.805C511.821 441.805 512.671 442.199 513.373 442.987ZM513.416 445.899C513.416 445.236 513.2 444.674 512.767 444.213C512.335 443.751 511.782 443.521 511.11 443.521C510.437 443.521 509.884 443.751 509.452 444.213C509.029 444.684 508.817 445.246 508.817 445.899C508.817 446.562 509.029 447.129 509.452 447.6C509.884 448.062 510.437 448.292 511.11 448.292C511.782 448.292 512.335 448.062 512.767 447.6C513.2 447.139 513.416 446.572 513.416 445.899ZM518.228 449.82H516.354V441.993H518.2V443.088C518.411 442.685 518.733 442.367 519.165 442.137C519.598 441.906 520.098 441.791 520.665 441.791C521.52 441.791 522.246 442.074 522.841 442.641C523.437 443.208 523.735 444.011 523.735 445.049V449.82H521.847V445.568C521.847 444.924 521.693 444.419 521.385 444.054C521.078 443.689 520.66 443.506 520.131 443.506C519.574 443.506 519.117 443.703 518.762 444.097C518.406 444.482 518.228 444.981 518.228 445.597V449.82ZM528.532 449.993C527.33 449.993 526.336 449.609 525.547 448.84C524.779 448.071 524.394 447.091 524.394 445.899C524.394 444.708 524.783 443.727 525.562 442.958C526.35 442.19 527.359 441.805 528.589 441.805C529.396 441.805 530.122 441.997 530.766 442.382C531.419 442.757 531.905 443.28 532.222 443.953L530.694 444.775C530.194 443.948 529.502 443.535 528.618 443.535C527.945 443.535 527.383 443.761 526.931 444.213C526.489 444.655 526.268 445.217 526.268 445.899C526.268 446.572 526.485 447.134 526.917 447.586C527.349 448.038 527.897 448.263 528.56 448.263C528.993 448.263 529.401 448.153 529.786 447.932C530.18 447.701 530.473 447.403 530.665 447.038L532.193 447.932C531.847 448.566 531.347 449.071 530.694 449.446C530.05 449.811 529.329 449.993 528.532 449.993ZM540.26 445.741C540.26 445.991 540.241 446.269 540.203 446.577H534.234C534.359 447.134 534.624 447.576 535.027 447.903C535.441 448.22 535.974 448.379 536.627 448.379C537.579 448.379 538.439 448.11 539.208 447.571L539.958 448.912C538.987 449.633 537.853 449.993 536.555 449.993C535.844 449.993 535.21 449.878 534.653 449.647C534.105 449.417 533.663 449.109 533.326 448.725C532.99 448.331 532.735 447.898 532.562 447.427C532.399 446.947 532.317 446.437 532.317 445.899C532.317 444.708 532.692 443.732 533.442 442.973C534.201 442.194 535.181 441.805 536.382 441.805C537.507 441.805 538.434 442.161 539.165 442.872C539.895 443.574 540.26 444.53 540.26 445.741ZM536.382 443.377C535.835 443.377 535.369 443.535 534.984 443.852C534.609 444.169 534.359 444.602 534.234 445.15H538.415C538.338 444.602 538.112 444.169 537.737 443.852C537.372 443.535 536.921 443.377 536.382 443.377Z" fill="#425A6F"/>
<path d="M460.421 467.852L463.521 465.286H464.804V475.939H463.16V467.521L461.315 469.02L460.421 467.852ZM471.355 471.543L468.732 474.411H473.129V475.939H466.382V474.556L469.77 470.952L470.577 470.058C470.779 469.827 470.957 469.544 471.11 469.207C471.274 468.871 471.355 468.568 471.355 468.299C471.355 467.819 471.182 467.425 470.836 467.117C470.5 466.8 470.077 466.641 469.568 466.641C468.741 466.641 467.901 467.04 467.045 467.838L466.137 466.656C467.194 465.618 468.362 465.099 469.64 465.099C470.62 465.099 471.423 465.397 472.047 465.993C472.682 466.589 472.999 467.362 472.999 468.314C472.999 469.284 472.451 470.361 471.355 471.543ZM475.311 477.713H473.682L480.53 464.047H482.159L475.311 477.713ZM488.481 475.637C487.914 475.954 487.27 476.112 486.549 476.112C485.829 476.112 485.185 475.954 484.618 475.637C483.637 475.07 482.955 474.061 482.571 472.609C482.427 471.946 482.354 471.278 482.354 470.606C482.354 469.923 482.427 469.26 482.571 468.616C482.715 467.972 482.96 467.381 483.306 466.843C483.662 466.305 484.099 465.882 484.618 465.575C485.175 465.257 485.819 465.099 486.549 465.099C487.27 465.099 487.914 465.257 488.481 465.575C489.49 466.132 490.168 467.141 490.514 468.602C490.86 469.938 490.86 471.274 490.514 472.609C490.168 474.07 489.49 475.079 488.481 475.637ZM486.549 474.556C487.405 474.556 488.039 474.19 488.452 473.46C488.875 472.72 489.087 471.769 489.087 470.606C489.087 469.452 488.875 468.506 488.452 467.766C488.029 467.026 487.395 466.656 486.549 466.656C485.704 466.656 485.069 467.026 484.647 467.766C484.233 468.496 484.027 469.443 484.027 470.606C484.007 471.759 484.209 472.706 484.632 473.446C485.065 474.176 485.704 474.546 486.549 474.556ZM495.568 476.112C494.425 476.112 493.493 475.824 492.772 475.248C492.051 474.671 491.691 473.94 491.691 473.056C491.691 472.46 491.878 471.913 492.253 471.413C492.628 470.904 493.127 470.534 493.752 470.303V470.274C493.252 470.034 492.858 469.707 492.57 469.294C492.282 468.881 492.138 468.419 492.138 467.91C492.138 467.093 492.455 466.42 493.089 465.892C493.714 465.363 494.54 465.099 495.568 465.099C496.587 465.099 497.404 465.363 498.019 465.892C498.653 466.42 498.971 467.093 498.971 467.91C498.971 468.419 498.826 468.885 498.538 469.308C498.25 469.722 497.851 470.043 497.342 470.274V470.317C497.976 470.538 498.48 470.899 498.855 471.399C499.23 471.898 499.417 472.451 499.417 473.056C499.417 473.94 499.057 474.671 498.336 475.248C497.635 475.824 496.712 476.112 495.568 476.112ZM496.895 469.207C497.231 468.909 497.399 468.53 497.399 468.069C497.399 467.607 497.226 467.228 496.88 466.93C496.544 466.632 496.102 466.483 495.554 466.483C494.997 466.483 494.545 466.632 494.199 466.93C493.853 467.228 493.68 467.607 493.68 468.069C493.68 468.53 493.853 468.909 494.199 469.207C494.545 469.505 494.997 469.654 495.554 469.654C496.111 469.654 496.558 469.505 496.895 469.207ZM495.568 474.656C496.212 474.656 496.741 474.488 497.154 474.152C497.567 473.806 497.774 473.369 497.774 472.84C497.774 472.321 497.567 471.898 497.154 471.572C496.751 471.245 496.217 471.081 495.554 471.081C494.891 471.081 494.353 471.245 493.939 471.572C493.536 471.898 493.334 472.321 493.334 472.84C493.334 473.369 493.541 473.806 493.954 474.152C494.367 474.488 494.905 474.656 495.568 474.656ZM501.465 477.713H499.836L506.684 464.047H508.313L501.465 477.713ZM513.848 471.543L511.224 474.411H515.621V475.939H508.874V474.556L512.262 470.952L513.069 470.058C513.271 469.827 513.449 469.544 513.603 469.207C513.766 468.871 513.848 468.568 513.848 468.299C513.848 467.819 513.675 467.425 513.329 467.117C512.993 466.8 512.57 466.641 512.06 466.641C511.234 466.641 510.393 467.04 509.538 467.838L508.629 466.656C509.687 465.618 510.854 465.099 512.132 465.099C513.113 465.099 513.915 465.397 514.54 465.993C515.174 466.589 515.491 467.362 515.491 468.314C515.491 469.284 514.943 470.361 513.848 471.543ZM522.748 475.637C522.181 475.954 521.537 476.112 520.816 476.112C520.096 476.112 519.452 475.954 518.885 475.637C517.904 475.07 517.222 474.061 516.838 472.609C516.694 471.946 516.621 471.278 516.621 470.606C516.621 469.923 516.694 469.26 516.838 468.616C516.982 467.972 517.227 467.381 517.573 466.843C517.929 466.305 518.366 465.882 518.885 465.575C519.442 465.257 520.086 465.099 520.816 465.099C521.537 465.099 522.181 465.257 522.748 465.575C523.757 466.132 524.435 467.141 524.781 468.602C525.127 469.938 525.127 471.274 524.781 472.609C524.435 474.07 523.757 475.079 522.748 475.637ZM520.816 474.556C521.672 474.556 522.306 474.19 522.719 473.46C523.142 472.72 523.354 471.769 523.354 470.606C523.354 469.452 523.142 468.506 522.719 467.766C522.296 467.026 521.662 466.656 520.816 466.656C519.971 466.656 519.336 467.026 518.914 467.766C518.5 468.496 518.294 469.443 518.294 470.606C518.274 471.759 518.476 472.706 518.899 473.446C519.332 474.176 519.971 474.546 520.816 474.556ZM530.848 471.543L528.224 474.411H532.621V475.939H525.874V474.556L529.262 470.952L530.069 470.058C530.271 469.827 530.449 469.544 530.603 469.207C530.766 468.871 530.848 468.568 530.848 468.299C530.848 467.819 530.675 467.425 530.329 467.117C529.992 466.8 529.569 466.641 529.06 466.641C528.234 466.641 527.393 467.04 526.537 467.838L525.629 466.656C526.686 465.618 527.854 465.099 529.132 465.099C530.112 465.099 530.915 465.397 531.54 465.993C532.174 466.589 532.491 467.362 532.491 468.314C532.491 469.284 531.943 470.361 530.848 471.543ZM532.929 467.852L536.029 465.286H537.312V475.939H535.668V467.521L533.823 469.02L532.929 467.852ZM545.609 465.099C546.868 465.099 547.829 465.575 548.492 466.526C549.155 467.458 549.486 468.708 549.486 470.274C549.486 471.062 549.4 471.797 549.227 472.48C549.054 473.162 548.795 473.782 548.449 474.339C548.112 474.887 547.656 475.32 547.079 475.637C546.512 475.954 545.854 476.112 545.104 476.112C543.96 476.112 543.019 475.81 542.279 475.204L542.899 473.936C543.571 474.416 544.282 474.656 545.032 474.656C545.964 474.656 546.671 474.286 547.151 473.546C547.622 472.816 547.882 471.884 547.93 470.75C547.67 471.163 547.3 471.495 546.82 471.744C546.349 471.994 545.83 472.119 545.263 472.119C544.292 472.119 543.49 471.797 542.855 471.153C542.221 470.5 541.904 469.678 541.904 468.688C541.904 467.66 542.25 466.805 542.942 466.122C543.643 465.44 544.532 465.099 545.609 465.099ZM547.007 470.13C547.401 469.736 547.598 469.246 547.598 468.66C547.598 468.073 547.401 467.574 547.007 467.16C546.623 466.747 546.147 466.54 545.58 466.54C544.984 466.54 544.494 466.742 544.109 467.146C543.715 467.559 543.518 468.064 543.518 468.66C543.518 469.246 543.711 469.736 544.095 470.13C544.479 470.514 544.965 470.707 545.551 470.707C546.137 470.707 546.623 470.514 547.007 470.13ZM551.695 470.894C551.406 470.894 551.161 470.798 550.96 470.606C550.767 470.413 550.671 470.173 550.671 469.885C550.671 469.606 550.767 469.371 550.96 469.179C551.161 468.986 551.406 468.89 551.695 468.89C551.973 468.89 552.209 468.986 552.401 469.179C552.593 469.371 552.689 469.606 552.689 469.885C552.689 470.173 552.593 470.413 552.401 470.606C552.209 470.798 551.973 470.894 551.695 470.894ZM551.695 476.17C551.406 476.17 551.161 476.074 550.96 475.882C550.767 475.69 550.671 475.449 550.671 475.161C550.671 474.882 550.767 474.647 550.96 474.455C551.161 474.262 551.406 474.166 551.695 474.166C551.973 474.166 552.209 474.262 552.401 474.455C552.593 474.647 552.689 474.882 552.689 475.161C552.689 475.449 552.593 475.69 552.401 475.882C552.209 476.074 551.973 476.17 551.695 476.17ZM560.022 475.637C559.455 475.954 558.811 476.112 558.09 476.112C557.369 476.112 556.725 475.954 556.158 475.637C555.178 475.07 554.496 474.061 554.111 472.609C553.967 471.946 553.895 471.278 553.895 470.606C553.895 469.923 553.967 469.26 554.111 468.616C554.255 467.972 554.5 467.381 554.846 466.843C555.202 466.305 555.639 465.882 556.158 465.575C556.716 465.257 557.36 465.099 558.09 465.099C558.811 465.099 559.455 465.257 560.022 465.575C561.031 466.132 561.708 467.141 562.054 468.602C562.4 469.938 562.4 471.274 562.054 472.609C561.708 474.07 561.031 475.079 560.022 475.637ZM558.09 474.556C558.945 474.556 559.58 474.19 559.993 473.46C560.416 472.72 560.627 471.769 560.627 470.606C560.627 469.452 560.416 468.506 559.993 467.766C559.57 467.026 558.936 466.656 558.09 466.656C557.244 466.656 556.61 467.026 556.187 467.766C555.774 468.496 555.567 469.443 555.567 470.606C555.548 471.759 555.75 472.706 556.173 473.446C556.605 474.176 557.244 474.546 558.09 474.556ZM569.415 475.637C568.848 475.954 568.205 476.112 567.484 476.112C566.763 476.112 566.119 475.954 565.552 475.637C564.572 475.07 563.889 474.061 563.505 472.609C563.361 471.946 563.289 471.278 563.289 470.606C563.289 469.923 563.361 469.26 563.505 468.616C563.649 467.972 563.894 467.381 564.24 466.843C564.596 466.305 565.033 465.882 565.552 465.575C566.109 465.257 566.753 465.099 567.484 465.099C568.205 465.099 568.848 465.257 569.415 465.575C570.425 466.132 571.102 467.141 571.448 468.602C571.794 469.938 571.794 471.274 571.448 472.609C571.102 474.07 570.425 475.079 569.415 475.637ZM567.484 474.556C568.339 474.556 568.973 474.19 569.387 473.46C569.809 472.72 570.021 471.769 570.021 470.606C570.021 469.452 569.809 468.506 569.387 467.766C568.964 467.026 568.329 466.656 567.484 466.656C566.638 466.656 566.004 467.026 565.581 467.766C565.168 468.496 564.961 469.443 564.961 470.606C564.942 471.759 565.144 472.706 565.566 473.446C565.999 474.176 566.638 474.546 567.484 474.556ZM584.341 475.939H582.554L581.545 473.316H577.624L576.614 475.939H574.827L579.065 465.286H580.146L584.341 475.939ZM581.04 471.788L579.599 467.924L578.157 471.788H581.04ZM587.003 475.939H585.36V465.286H586.268L590.737 471.817L595.177 465.286H596.114V475.939H594.442V469.121L590.968 474.195H590.477L587.003 469.121V475.939Z" fill="#818FA9"/>
<rect x="460.393" y="488.324" width="59.2782" height="18.4637" rx="9.23185" fill="#22AC6A" fill-opacity="0.2"/>
<path d="M471.741 500.811H469.425V494.469H471.819C472.74 494.469 473.46 494.755 473.981 495.327C474.513 495.899 474.779 496.675 474.779 497.653C474.779 498.62 474.507 499.389 473.964 499.961C473.42 500.527 472.68 500.811 471.741 500.811ZM470.411 495.413V499.867H471.784C472.402 499.867 472.883 499.658 473.226 499.24C473.575 498.823 473.749 498.285 473.749 497.627C473.749 496.986 473.575 496.457 473.226 496.04C472.883 495.622 472.405 495.413 471.793 495.413H470.411ZM475.266 498.494C475.266 497.824 475.495 497.252 475.952 496.778C476.416 496.303 477.002 496.065 477.711 496.065C478.421 496.065 479.004 496.303 479.462 496.778C479.925 497.247 480.157 497.819 480.157 498.494C480.157 499.18 479.925 499.758 479.462 500.227C479.01 500.696 478.426 500.931 477.711 500.931C477.002 500.931 476.416 500.696 475.952 500.227C475.495 499.752 475.266 499.174 475.266 498.494ZM479.204 498.494C479.204 498.07 479.058 497.707 478.767 497.404C478.486 497.095 478.135 496.941 477.711 496.941C477.294 496.941 476.939 497.095 476.647 497.404C476.361 497.707 476.218 498.07 476.218 498.494C476.218 498.923 476.361 499.289 476.647 499.592C476.939 499.895 477.294 500.047 477.711 500.047C478.129 500.047 478.481 499.895 478.767 499.592C479.058 499.289 479.204 498.923 479.204 498.494ZM482.592 500.802H481.785L480.206 496.186H481.202L482.24 499.506L483.433 496.186H484.102L485.329 499.506L486.333 496.186H487.328L485.775 500.802H484.969L483.767 497.524L482.592 500.802ZM488.723 500.811H487.779V496.186H488.706V496.838C488.843 496.597 489.041 496.409 489.298 496.271C489.555 496.134 489.847 496.065 490.173 496.065C490.682 496.065 491.111 496.231 491.46 496.563C491.815 496.901 491.992 497.378 491.992 497.996V500.811H491.04V498.262C491.04 497.844 490.94 497.521 490.74 497.292C490.539 497.058 490.271 496.941 489.933 496.941C489.578 496.941 489.287 497.066 489.058 497.318C488.835 497.564 488.723 497.885 488.723 498.279V500.811ZM493.837 494.306V500.811H492.893V494.306H493.837ZM494.523 498.494C494.523 497.824 494.752 497.252 495.21 496.778C495.673 496.303 496.259 496.065 496.969 496.065C497.678 496.065 498.261 496.303 498.719 496.778C499.183 497.247 499.414 497.819 499.414 498.494C499.414 499.18 499.183 499.758 498.719 500.227C498.267 500.696 497.684 500.931 496.969 500.931C496.259 500.931 495.673 500.696 495.21 500.227C494.752 499.752 494.523 499.174 494.523 498.494ZM498.462 498.494C498.462 498.07 498.316 497.707 498.024 497.404C497.744 497.095 497.392 496.941 496.969 496.941C496.551 496.941 496.196 497.095 495.905 497.404C495.619 497.707 495.476 498.07 495.476 498.494C495.476 498.923 495.619 499.289 495.905 499.592C496.196 499.895 496.551 500.047 496.969 500.047C497.386 500.047 497.738 499.895 498.024 499.592C498.316 499.289 498.462 498.923 498.462 498.494ZM503.717 496.829V496.186H504.626V500.811H503.717V500.176C503.299 500.673 502.773 500.922 502.138 500.922C501.469 500.922 500.917 500.688 500.482 500.218C500.047 499.749 499.83 499.166 499.83 498.468C499.83 497.776 500.047 497.204 500.482 496.752C500.917 496.3 501.469 496.074 502.138 496.074C502.773 496.074 503.299 496.326 503.717 496.829ZM502.267 500.055C502.696 500.055 503.053 499.904 503.339 499.601C503.62 499.303 503.76 498.934 503.76 498.494C503.76 498.059 503.62 497.693 503.339 497.395C503.053 497.092 502.696 496.941 502.267 496.941C501.826 496.941 501.469 497.092 501.194 497.395C500.92 497.693 500.782 498.062 500.782 498.502C500.782 498.943 500.92 499.312 501.194 499.609C501.469 499.907 501.826 500.055 502.267 500.055ZM509.165 496.829V494.306H510.118V500.811H509.182V500.167C508.782 500.67 508.264 500.922 507.629 500.922C506.96 500.922 506.408 500.69 505.973 500.227C505.533 499.752 505.312 499.174 505.312 498.494C505.312 497.819 505.533 497.247 505.973 496.778C506.408 496.309 506.957 496.074 507.621 496.074C508.233 496.074 508.748 496.326 509.165 496.829ZM509.234 498.494C509.234 498.059 509.097 497.693 508.822 497.395C508.547 497.092 508.19 496.941 507.749 496.941C507.309 496.941 506.951 497.092 506.677 497.395C506.402 497.693 506.265 498.059 506.265 498.494C506.265 498.94 506.402 499.312 506.677 499.609C506.951 499.907 507.309 500.055 507.749 500.055C508.19 500.055 508.547 499.907 508.822 499.609C509.097 499.312 509.234 498.94 509.234 498.494Z" fill="#22AC6A"/>
</g>
<defs>
<filter id="filter0_d_780_5485" x="0.14286" y="1.28572" width="721.714" height="541.714" filterUnits="userSpaceOnUse" color-interpolation-filters="sRGB">
<feFlood flood-opacity="0" result="BackgroundImageFix"/>
<feColorMatrix in="SourceAlpha" type="matrix" values="0 0 0 0 0 0 0 0 0 0 0 0 0 0 0 0 0 0 127 0" result="hardAlpha"/>
<feOffset dy="10.1429"/>
<feGaussianBlur stdDeviation="30.4286"/>
<feComposite in2="hardAlpha" operator="out"/>
<feColorMatrix type="matrix" values="0 0 0 0 0.258824 0 0 0 0 0.352941 0 0 0 0 0.435294 0 0 0 0.1 0"/>
<feBlend mode="normal" in2="BackgroundImageFix" result="effect1_dropShadow_780_5485"/>
<feBlend mode="normal" in="SourceGraphic" in2="effect1_dropShadow_780_5485" result="shape"/>
</filter>
<filter id="filter1_d_780_5485" x="58.6936" y="258.411" width="346.923" height="357.613" filterUnits="userSpaceOnUse" color-interpolation-filters="sRGB">
<feFlood flood-opacity="0" result="BackgroundImageFix"/>
<feColorMatrix in="SourceAlpha" type="matrix" values="0 0 0 0 0 0 0 0 0 0 0 0 0 0 0 0 0 0 127 0" result="hardAlpha"/>
<feOffset dy="9.71774"/>
<feGaussianBlur stdDeviation="29.1532"/>
<feComposite in2="hardAlpha" operator="out"/>
<feColorMatrix type="matrix" values="0 0 0 0 0.258824 0 0 0 0 0.352941 0 0 0 0 0.435294 0 0 0 0.2 0"/>
<feBlend mode="normal" in2="BackgroundImageFix" result="effect1_dropShadow_780_5485"/>
<feBlend mode="normal" in="SourceGraphic" in2="effect1_dropShadow_780_5485" result="shape"/>
</filter>
<filter id="filter2_d_780_5485" x="331.004" y="368.311" width="346.923" height="226.423" filterUnits="userSpaceOnUse" color-interpolation-filters="sRGB">
<feFlood flood-opacity="0" result="BackgroundImageFix"/>
<feColorMatrix in="SourceAlpha" type="matrix" values="0 0 0 0 0 0 0 0 0 0 0 0 0 0 0 0 0 0 127 0" result="hardAlpha"/>
<feOffset dy="9.71774"/>
<feGaussianBlur stdDeviation="29.1532"/>
<feComposite in2="hardAlpha" operator="out"/>
<feColorMatrix type="matrix" values="0 0 0 0 0.258824 0 0 0 0 0.352941 0 0 0 0 0.435294 0 0 0 0.2 0"/>
<feBlend mode="normal" in2="BackgroundImageFix" result="effect1_dropShadow_780_5485"/>
<feBlend mode="normal" in="SourceGraphic" in2="effect1_dropShadow_780_5485" result="shape"/>
</filter>
<clipPath id="clip0_780_5485">
<rect x="61" y="52" width="600" height="420" rx="15.2143" fill="white"/>
</clipPath>
</defs>
</svg>
