<svg width="218" height="86" viewBox="0 0 218 86" fill="none" xmlns="http://www.w3.org/2000/svg">
<path d="M36.1753 60.5522C43.5381 60.5522 49.0864 58.1432 53.4296 53.6169C57.9006 49.1408 59.2887 42.8744 59.2887 37.8049C59.2887 36.2308 59.168 34.7874 58.9266 33.5753H36.1753V40.3346H52.3484C51.8655 44.1367 50.5931 46.9129 48.67 48.8441C46.3123 51.1928 42.6349 53.7929 36.1753 53.7929C26.2189 53.7929 18.4322 45.7662 18.4322 35.8083C18.4322 25.8504 26.2189 17.8187 36.1753 17.8187C41.5425 17.8187 45.4719 19.936 48.3637 22.6518L53.1329 17.8841C49.0864 14.0267 43.7192 11.0645 36.1753 11.0645C22.5335 11.0645 11.0684 22.164 11.0684 35.8083C11.0684 49.4476 22.5335 60.5522 36.1753 60.5522ZM77.7008 60.5522C86.5069 60.5522 93.6887 53.7929 93.6887 44.6145C93.6887 35.3859 86.5069 28.6869 77.7008 28.6869C68.8795 28.6869 61.6977 35.3859 61.6977 44.6145C61.6977 53.7929 68.8795 60.5522 77.7008 60.5522ZM77.7008 54.2757C72.8677 54.2757 68.6984 50.2925 68.6984 44.6145C68.6984 38.8862 72.8677 34.9684 77.7008 34.9684C82.5238 34.9684 86.688 38.8862 86.688 44.6145C86.688 50.2925 82.5238 54.2757 77.7008 54.2757V54.2757ZM112.579 60.5522C121.39 60.5522 128.572 53.7929 128.572 44.6145C128.572 35.3859 121.39 28.6869 112.579 28.6869C103.762 28.6869 96.5805 35.3859 96.5805 44.6145C96.5805 53.7929 103.762 60.5522 112.579 60.5522ZM112.579 54.2757C107.75 54.2757 103.581 50.2925 103.581 44.6145C103.581 38.8862 107.75 34.9684 112.579 34.9684C117.407 34.9684 121.571 38.8862 121.571 44.6145C121.571 50.2925 117.407 54.2757 112.579 54.2757V54.2757ZM146.858 74.8553C155.061 74.8553 162.011 70.0323 162.011 58.2588V29.6525H155.367V32.2476H155.126C153.552 30.3767 150.534 28.6869 146.742 28.6869C138.771 28.6869 131.473 35.6876 131.473 44.6799C131.473 53.6169 138.771 60.5522 146.742 60.5522C150.534 60.5522 153.552 58.8624 155.126 56.9311H155.367V59.2245C155.367 65.3249 152.108 68.5788 146.858 68.5788C142.578 68.5788 139.917 65.506 138.826 62.9008L132.736 65.4406C134.491 69.6702 139.133 74.8553 146.858 74.8553V74.8553ZM147.336 54.2757C142.513 54.2757 138.464 50.2372 138.464 44.6799C138.464 39.0673 142.513 34.9684 147.336 34.9684C152.108 34.9684 155.85 39.0673 155.85 44.6799C155.85 50.2372 152.108 54.2757 147.336 54.2757ZM173.835 12.7543H166.834V59.5866H173.835V12.7543ZM193.026 60.5522C200.324 60.5522 204.553 56.0912 206.303 53.4911L200.867 49.8751C199.061 52.5205 196.587 54.2757 193.026 54.2757C189.466 54.2757 186.926 52.6462 185.301 49.4476L206.605 40.6314L205.881 38.8259C204.553 35.2652 200.505 28.6869 192.242 28.6869C184.034 28.6869 177.214 35.1495 177.214 44.6145C177.214 53.5515 183.974 60.5522 193.026 60.5522V60.5522ZM184.155 44.1367C183.974 37.986 188.922 34.8427 192.483 34.8427C195.259 34.8427 197.613 36.2308 198.402 38.2224L184.155 44.1367Z" fill="white"/>
</svg>
