<svg width="240" height="86" viewBox="0 0 240 86" fill="none" xmlns="http://www.w3.org/2000/svg">
<g clip-path="url(#clip0_845_6598)">
<path d="M0.375 12.9414H8.72179V31.4856H26.3257V12.9414H34.6833V58.4616H26.3257V39.528H8.72179V58.4616H0.375V12.9414Z" fill="white"/>
<path d="M61.1265 43.6356C61.1265 47.4462 58.0219 50.547 54.2123 50.547C50.4012 50.547 47.2985 47.4462 47.2985 43.6356V24.0376H39.3828V43.6356C39.3828 51.8118 46.0357 58.4623 54.2123 58.4623C62.387 58.4623 69.0394 51.8118 69.0394 43.6356V24.0376H61.1265V43.6356Z" fill="white"/>
<path d="M91.1404 24.2665C87.2138 24.2665 84.473 25.406 81.8262 28.0042V12.9414H73.8848V40.8568C73.8848 51.3057 81.4395 58.4616 89.927 58.4616C99.3628 58.4616 107.63 51.1781 107.63 41.3645C107.63 31.6754 100.007 24.2665 91.1404 24.2665ZM91.3377 51.1149C85.9566 51.1149 81.8416 46.6208 81.8416 41.3645C81.8416 36.1074 85.9566 31.6118 91.3377 31.6118C95.8973 31.6118 100.015 36.1074 100.015 41.3645C100.015 46.6208 95.8973 51.1149 91.3377 51.1149Z" fill="white"/>
<path d="M120.964 26.2679C120.964 22.2759 123.624 21.0102 126.536 21.0102C128.88 21.0102 131.983 22.7832 134.007 24.9368L139.198 18.8581C136.604 15.3757 131.349 12.9688 127.043 12.9688C118.43 12.9688 112.224 17.9716 112.224 26.2679C112.224 41.6551 131.159 36.7776 131.159 45.3918C131.159 48.0485 128.563 50.3937 125.589 50.3937C120.901 50.3937 119.381 48.1139 117.228 45.7069L111.465 51.6585C115.14 56.1549 119.698 58.4357 125.144 58.4357C133.312 58.4357 139.898 53.3697 139.898 45.4531C139.898 28.3565 120.964 33.6763 120.964 26.2679Z" fill="white"/>
<path d="M160.802 23.8213C152.315 23.8213 144.76 30.973 144.76 41.4243V69.4116H152.701V54.2774C155.348 56.8737 158.087 58.015 162.015 58.015C170.881 58.015 178.506 50.607 178.506 40.9179C178.506 31.103 170.236 23.8213 160.802 23.8213ZM162.213 50.6706C156.833 50.6706 152.717 46.1704 152.717 40.9179C152.717 35.6607 156.833 31.1652 162.213 31.1652C166.772 31.1652 170.89 35.6607 170.89 40.9179C170.89 46.1704 166.772 50.6706 162.213 50.6706Z" fill="white"/>
<path d="M236.96 51.1152C232.276 51.1152 230.946 49.0897 230.946 45.9856V32.2451H238.227V25.2804H230.946V16.0977L222.906 19.7062V47.6955C222.906 54.8519 227.844 58.4619 234.616 58.4619C235.629 58.4619 237.024 58.3964 237.785 58.2089L239.748 50.9908C238.862 51.0521 237.849 51.1152 236.96 51.1152Z" fill="white"/>
<path d="M216.019 32.6504C214.496 30.0311 212.355 27.9313 209.678 26.3505C207.677 25.1858 205.602 24.4466 203.265 24.1292V15.8067C205.602 14.8141 207.053 12.617 207.053 10.0539C207.053 6.56033 204.252 3.72928 200.761 3.72928C197.267 3.72928 194.417 6.56033 194.417 10.0539C194.417 12.617 195.784 14.8141 198.122 15.8067V24.1329C196.251 24.4032 194.312 24.9862 192.541 25.882C188.923 23.1347 177.061 14.1216 170.122 8.85742C170.287 8.2641 170.414 7.65253 170.414 7.00731C170.414 3.13782 167.28 0.00146484 163.409 0.00146484C159.538 0.00146484 156.406 3.13782 156.406 7.00731C156.406 10.8763 159.542 14.0136 163.413 14.0136C164.733 14.0136 165.954 13.6274 167.008 12.9925L168.472 14.1034L188.594 28.6013C187.53 29.5781 186.54 30.689 185.747 31.9355C184.141 34.4766 183.16 37.2726 183.16 40.3225V40.9588C183.16 43.0997 183.567 45.121 184.259 47.0197C184.87 48.6777 185.762 50.1851 186.867 51.548L180.188 58.2425C179.596 58.0241 178.974 57.9044 178.324 57.9044C176.879 57.9044 175.523 58.4692 174.5 59.4899C173.477 60.5134 172.916 61.8726 172.916 63.3192C172.917 64.7653 173.48 66.1245 174.503 67.147C175.526 68.17 176.885 68.7339 178.331 68.7339C179.778 68.7339 181.138 68.17 182.161 67.147C183.182 66.1245 183.746 64.7648 183.746 63.3192C183.746 62.7595 183.66 62.2134 183.497 61.6944L190.399 54.791C191.346 55.4446 192.368 55.9949 193.467 56.4695C195.634 57.4065 198.026 57.9773 200.644 57.9773H201.123C204.017 57.9773 206.747 57.2975 209.314 55.907C212.018 54.4375 214.135 52.4279 215.734 49.8625C217.341 47.29 218.226 44.4477 218.226 41.3207V41.1645C218.226 38.0885 217.514 35.2504 216.019 32.6504ZM207.585 47.1319C205.711 49.214 203.558 50.4965 201.123 50.4965H200.722C199.332 50.4965 197.971 50.1121 196.64 49.4131C195.139 48.6435 193.998 47.5457 193.064 46.1557C192.099 44.7914 191.576 43.3017 191.576 41.7223V41.2426C191.576 39.6899 191.874 38.2175 192.624 36.827C193.427 35.307 194.512 34.125 195.953 33.1852C197.369 32.252 198.881 31.7943 200.565 31.7943H200.722C202.249 31.7943 203.695 32.0954 205.059 32.7934C206.449 33.5378 207.585 34.5547 208.465 35.8924C209.32 37.2305 209.829 38.6739 209.993 40.2463C210.018 40.5731 210.032 40.9079 210.032 41.2277C210.032 43.3616 209.216 45.3379 207.585 47.1319Z" fill="white"/>
</g>
<defs>
<clipPath id="clip0_845_6598">
<rect width="239.388" height="69.6657" fill="white" transform="translate(0.351562)"/>
</clipPath>
</defs>
</svg>
