<svg width="357" height="86" viewBox="0 0 357 86" fill="none" xmlns="http://www.w3.org/2000/svg">
<path fill-rule="evenodd" clip-rule="evenodd" d="M50.6832 26.5704C45.3991 26.5491 40.1151 26.5349 34.831 26.5029C34.2301 26.4993 33.942 26.7198 33.9812 27.3385C34.0025 27.655 33.9812 27.975 33.9812 28.2915C33.9812 38.3084 33.9812 48.3289 33.9812 58.3458C33.9812 58.8188 33.9812 59.2846 33.9812 59.8393C28.4553 59.8393 23.029 59.8393 17.3965 59.8393C17.3965 59.3664 17.3965 58.8757 17.3965 58.3743C17.3965 48.2756 17.3965 38.1804 17.3965 28.0852C17.3965 26.5171 17.3965 26.5135 15.871 26.5135C11.2982 26.51 6.72885 26.5135 2.15953 26.5135C1.72571 26.5135 1.2919 26.5135 0.765625 26.5135C0.765625 20.9735 0.765625 15.5187 0.765625 10C17.3503 10 33.9136 10 50.6476 10C50.6476 15.5223 50.6476 21.0624 50.6476 26.606L50.6832 26.5704ZM50.6867 26.5669C50.7329 27.0789 50.8147 27.5839 50.8147 28.0959C50.8218 38.1946 50.8183 48.2898 50.8254 58.3885C50.8254 58.8828 50.8716 59.3806 50.8965 59.8464C67.6056 59.8464 84.1654 59.8464 100.764 59.8464C100.764 54.3383 100.764 48.9156 100.764 43.3507C100.217 43.3507 99.7508 43.3507 99.285 43.3507C89.1472 43.3507 79.0093 43.3293 68.8715 43.372C67.755 43.3791 67.3674 43.116 67.3852 41.9354C67.4527 37.3234 67.4136 32.7114 67.41 28.0995C67.41 27.6407 67.3674 27.182 67.3389 26.606C61.6851 26.606 56.1663 26.606 50.6476 26.606C50.644 26.606 50.6832 26.5704 50.6867 26.5669ZM67.6518 10.0178C67.627 10.4552 67.5843 10.8072 67.5843 11.1592C67.5807 15.8494 67.6127 20.5432 67.5558 25.2299C67.5452 26.3322 67.9399 26.5313 68.9426 26.5278C79.1196 26.4958 89.2965 26.51 99.4735 26.5064C99.8966 26.5064 100.32 26.4709 100.789 26.4495C100.789 20.9201 100.789 15.5259 100.789 10.0142C89.6806 10.0178 78.6964 10.0178 67.6518 10.0178ZM229.491 22.1185C228.115 21.962 226.703 21.898 225.327 22.0296C220.445 22.474 216.843 24.9169 214.898 29.4258C212.736 34.4432 212.782 39.5779 214.866 44.6237C216.462 48.4925 219.385 50.9922 223.517 51.7141C225.515 52.0697 227.652 52.0875 229.665 51.7959C234.014 51.1701 236.908 48.4889 238.868 44.517C236.567 43.2938 234.338 42.1132 232.115 40.9327C231.415 41.8927 230.856 42.8208 230.134 43.5996C228.051 45.8718 224.431 45.4877 223.101 42.7248C221.302 38.9876 221.291 35.0583 223.062 31.3175C224.548 28.1884 228.584 28.1741 230.369 31.154C230.789 31.8509 231.123 32.6048 231.528 33.3977C233.961 32.4448 236.318 31.5238 238.772 30.5566C237.225 25.8913 234.515 22.6945 229.491 22.1185ZM343.727 50.2349C343.727 46.6576 343.72 43.0804 343.734 39.5032C343.738 38.8702 343.781 38.2302 343.894 37.6115C344.161 36.1891 344.869 35.6202 346.27 35.6202C347.628 35.6237 348.407 36.2424 348.645 37.6292C348.766 38.3262 348.77 39.0516 348.773 39.7663C348.784 43.2618 348.78 46.7607 348.78 50.2562C348.78 50.6864 348.78 51.1096 348.78 51.5683C351.372 51.5683 353.812 51.5683 356.23 51.5683C356.283 51.4225 356.329 51.3514 356.329 51.2838C356.34 47.3866 356.365 43.4929 356.344 39.5992C356.329 38.1733 356.315 36.7296 356.102 35.325C355.423 30.8197 352.229 28.5404 347.738 29.3974C346.38 29.6569 345.096 30.3077 343.681 30.8126C343.681 27.687 343.681 24.5294 343.681 21.2082C341.466 22.0865 339.425 22.9505 337.348 23.7008C336.466 24.0173 336.139 24.4262 336.143 25.4041C336.189 33.7106 336.167 42.0101 336.171 50.3166C336.171 50.7398 336.21 51.1558 336.231 51.5754C338.781 51.5754 341.192 51.5754 343.727 51.5754C343.727 51.0883 343.727 50.658 343.727 50.2349ZM195.998 39.4605C196.002 38.8276 196.037 38.1875 196.172 37.5723C196.499 36.0575 197.267 35.4993 198.782 35.5597C200.133 35.613 200.894 36.3313 201.079 37.8106C201.175 38.5964 201.211 39.393 201.218 40.1859C201.232 43.4858 201.218 46.7785 201.225 50.0748C201.225 50.5407 201.275 50.9994 201.3 51.5043C203.775 51.5043 206.132 51.5043 208.568 51.5043C208.589 51.0456 208.625 50.658 208.625 50.274C208.625 46.302 208.643 42.323 208.614 38.3511C208.607 37.3234 208.532 36.2851 208.369 35.2681C207.697 30.9726 204.681 28.7182 200.393 29.44C198.917 29.6889 197.509 30.3717 195.987 30.8802C195.987 27.7865 195.987 24.6289 195.987 21.3077C193.779 22.1825 191.745 23.0466 189.661 23.7933C188.836 24.092 188.627 24.5329 188.63 25.3579C188.659 33.6644 188.648 41.9639 188.652 50.2704C188.652 50.6864 188.691 51.1025 188.712 51.515C191.19 51.515 193.527 51.515 195.998 51.515C195.991 47.4079 195.984 43.436 195.998 39.4605ZM282.776 29.7529C280.262 29.7529 277.847 29.7529 275.287 29.7529C275.287 30.2437 275.287 30.6668 275.287 31.09C275.287 34.6281 275.291 38.1662 275.284 41.7078C275.28 42.3799 275.276 43.0697 275.163 43.7276C274.921 45.1037 274.131 45.7224 272.77 45.7153C271.404 45.7082 270.672 45.0895 270.444 43.6671C270.33 42.9666 270.288 42.2448 270.284 41.5336C270.27 38.031 270.28 34.5356 270.277 31.0331C270.273 30.617 270.234 30.1974 270.213 29.7423C267.674 29.7423 265.263 29.7423 262.788 29.7423C262.756 30.105 262.703 30.4108 262.706 30.7166C262.749 35.6059 262.603 40.5024 262.902 45.3811C263.222 50.5407 267.176 53.1649 272.112 51.8065C273.161 51.515 274.131 50.946 275.202 50.4802C275.262 50.8429 275.319 51.2021 275.39 51.5968C277.883 51.5968 280.294 51.5968 282.779 51.5968C282.776 44.2361 282.776 36.9892 282.776 29.7529ZM308.304 36.118C308.293 35.1508 307.973 34.1516 307.624 33.2306C306.874 31.2429 305.448 29.9272 303.34 29.4578C300.993 28.9386 298.763 29.2587 296.694 30.5424C296.452 30.6953 296.178 30.8019 295.883 30.9513C295.815 30.4677 295.773 30.1228 295.719 29.7423C293.273 29.7423 290.865 29.7423 288.387 29.7423C288.387 37.0496 288.387 44.293 288.387 51.5719C290.869 51.5719 293.273 51.5719 295.808 51.5719C295.808 51.0847 295.808 50.6616 295.808 50.2313C295.808 46.6541 295.801 43.0769 295.815 39.4996C295.822 38.8276 295.872 38.1448 296.004 37.4905C296.267 36.1855 297.024 35.6202 298.365 35.6202C299.688 35.6237 300.449 36.2033 300.705 37.5261C300.829 38.184 300.843 38.8702 300.85 39.5387C300.861 43.1195 300.854 46.6967 300.854 50.274C300.854 50.6971 300.854 51.1274 300.854 51.5932C303.436 51.5932 305.846 51.5932 308.336 51.5932C308.339 46.3589 308.375 41.2349 308.304 36.118ZM126.331 51.4865C129.044 51.4865 131.594 51.4865 134.239 51.4865C134.239 50.9176 134.239 50.4446 134.239 49.9717C134.239 43.5747 134.261 37.1812 134.218 30.7842C134.211 29.7281 134.449 29.3156 135.594 29.3618C137.841 29.4543 140.096 29.3902 142.489 29.3902C142.489 27.4309 142.429 25.6103 142.514 23.8004C142.564 22.7443 142.229 22.4527 141.18 22.4598C133.912 22.5025 126.64 22.4812 119.372 22.4847C118.956 22.4847 118.544 22.5487 118.167 22.5772C118.167 24.9241 118.167 27.1251 118.167 29.3902C119.575 29.3902 120.88 29.3902 122.188 29.3902C123.493 29.3902 124.798 29.3902 126.331 29.3902C126.331 36.8789 126.331 44.1649 126.331 51.4865ZM160.859 36.5625C159.856 32.0038 156.709 29.4934 152.072 29.2978C147.499 29.1022 143.769 31.6305 142.446 35.9402C141.504 39.0089 141.468 42.1523 142.421 45.2211C143.598 49.0116 146.169 51.2838 150.156 51.8883C152.57 52.251 154.913 51.9452 157.193 51.1594C158.405 50.7505 159.557 50.1673 160.823 49.6232C159.799 47.92 158.903 46.4372 157.989 44.9152C157.488 45.1322 157.104 45.3668 156.691 45.4557C155.116 45.79 153.534 46.2736 151.944 46.3376C149.963 46.4087 148.708 44.933 148.637 42.7817C152.83 42.7817 157.022 42.7817 161.613 42.7817C161.353 40.5486 161.293 38.5111 160.859 36.5625ZM148.644 38.1519C148.676 35.9793 149.828 34.6992 151.649 34.7241C153.612 34.749 154.807 36.0504 154.746 38.1519C152.645 38.1519 150.643 38.1519 148.644 38.1519ZM322.872 29.2409C318.946 29.3902 315.682 30.8162 314.043 34.6138C312.258 38.7493 312.272 43.0128 314.21 47.0879C316.009 50.8678 319.391 52.1017 323.366 52.0946C327.26 52.0946 329.884 50.0677 331.911 46.8354C330.311 45.5838 328.764 44.3854 327.224 43.1764C326.684 43.8236 326.279 44.3712 325.809 44.8441C323.821 46.839 321.151 46.2345 320.671 43.5036C320.333 41.6012 320.525 39.5708 320.714 37.6221C320.81 36.5447 321.503 35.613 322.74 35.4033C324.024 35.1863 324.977 35.7375 325.688 36.7723C325.991 37.2132 326.289 37.6577 326.616 38.1448C328.359 36.8256 329.998 35.5775 331.715 34.276C329.657 30.7842 326.773 29.088 322.872 29.2409ZM176.551 29.3582C171.434 29.0133 166.982 31.1789 165.759 36.726C165.364 38.5218 165.254 40.4313 165.343 42.2697C165.613 47.8809 168.824 51.2909 174.254 51.9843C178.35 52.5035 182.333 50.434 184.061 46.839C183.808 46.6221 183.552 46.3803 183.275 46.1669C182.062 45.2139 180.843 44.2787 179.616 43.3186C178.997 43.9978 178.496 44.6734 177.874 45.2068C176.042 46.7821 173.788 46.2131 173.031 43.9303C172.287 41.6865 172.302 39.3716 173.116 37.1492C173.912 34.9837 176.27 34.5996 177.771 36.3349C178.208 36.8434 178.553 37.423 178.987 38.0382C180.633 36.7901 182.24 35.5739 183.958 34.2654C182.226 31.3282 179.876 29.5823 176.551 29.3582ZM259.008 30.9619C259.183 30.2579 258.937 29.945 258.318 29.7209C256.082 28.9244 253.952 29.0524 251.957 30.4179C251.658 30.6277 251.363 30.8339 250.997 31.09C250.922 30.5281 250.872 30.1441 250.823 29.7423C248.344 29.7423 245.933 29.7423 243.455 29.7423C243.455 37.0496 243.455 44.293 243.455 51.5434C245.969 51.5434 248.408 51.5434 250.922 51.5434C250.922 50.6189 250.922 49.7868 250.922 48.9583C250.922 45.7758 250.904 42.5968 250.944 39.4214C250.958 38.2515 251.139 37.0567 252.352 36.4736C253.642 35.8548 254.915 36.086 256.089 36.8434C256.512 37.1136 256.896 37.455 257.429 37.8639C257.977 35.4424 258.464 33.195 259.008 30.9619Z" fill="white"/>
</svg>
