<svg width="280" height="86" viewBox="0 0 280 86" fill="none" xmlns="http://www.w3.org/2000/svg">
<g clip-path="url(#clip0_845_6599)">
<path d="M24.141 29.4102H17.4016V44.7611C17.4016 47.382 18.8993 47.9436 21.3329 47.9436C22.269 47.9436 23.205 47.7564 24.141 47.7564V55.8063C22.0818 55.8063 20.0225 56.1807 18.1504 56.1807C8.79011 56.1807 6.35643 53.3726 6.35643 44.1995V29.4102H0.740234V22.1091H6.35643V12H17.4016V22.1091H24.141V29.4102ZM33.8758 41.7658C34.063 46.446 36.6839 49.4413 41.364 49.4413C43.9849 49.4413 46.6058 48.1308 47.729 45.6971H58.0254C56.1533 53.5598 48.8523 56.9295 41.364 56.9295C30.3188 56.9295 22.8306 50.3773 22.8306 38.9577C22.8306 28.6614 31.0677 21.1731 40.9896 21.1731C53.158 21.1731 59.1486 30.3462 58.587 41.7658H33.8758ZM47.5418 35.588C47.3546 31.8439 44.7337 28.6614 40.9896 28.6614C37.0583 28.6614 34.4374 31.4695 33.8758 35.588H47.5418ZM82.9238 34.4648C82.9238 31.6567 80.3029 29.5974 77.4948 29.5974C71.317 29.5974 70.381 34.8392 70.381 39.5193C70.381 43.8251 72.2531 48.318 76.9332 48.318C80.8646 48.318 82.7366 46.0716 83.2982 42.5146H93.969C93.033 51.6877 86.1063 56.9295 77.1204 56.9295C67.0113 56.9295 59.3358 50.0029 59.3358 39.7065C59.3358 29.0358 66.0753 21.3603 77.1204 21.3603C85.5447 21.3603 93.033 25.8533 93.7818 34.652H82.9238V34.4648ZM94.3434 12H105.389V26.7893H105.576C107.261 23.4196 111.754 21.1731 115.872 21.1731C127.105 21.1731 128.041 29.4102 128.041 34.2776V55.9935H116.995V39.7065C116.995 35.0264 117.557 30.3462 111.379 30.3462C107.261 30.3462 105.389 33.9031 105.389 37.6473V55.9935H94.3434V12ZM128.977 22.1091H139.647V28.0997H139.835C141.519 23.794 145.264 21.5475 149.944 21.5475C150.88 21.5475 151.629 21.5475 152.565 21.7347V31.8439C151.067 31.4695 149.757 31.2823 148.259 31.2823C142.83 31.2823 140.022 35.0264 140.022 39.3321V55.9935H128.977V22.1091ZM152.565 32.5927C152.752 28.0997 154.811 25.2917 157.806 23.6068C160.802 21.9219 164.733 21.1731 168.477 21.1731C176.527 21.1731 184.202 22.858 184.202 32.4055V47.1948C184.202 50.0029 184.202 53.1854 185.513 55.8063H174.468C174.093 54.683 173.906 53.747 173.906 52.6238C170.911 55.8063 166.792 56.9295 162.674 56.9295C156.309 56.9295 151.067 53.747 151.067 46.6332C151.067 35.588 163.048 36.524 170.724 34.8392C172.596 34.4648 173.719 33.7159 173.719 31.6567C173.719 29.0358 170.724 28.0997 168.29 28.0997C165.295 28.0997 163.235 29.4102 162.674 32.4055H152.565V32.5927ZM166.792 50.1901C172.034 50.1901 173.906 47.1948 173.532 40.2682C172.034 41.2042 169.039 41.3914 166.792 42.1402C164.359 42.7018 162.299 43.8251 162.299 46.446C162.299 49.0669 164.359 50.1901 166.792 50.1901ZM219.959 55.9935H209.475V52.0622H209.288C208.3 53.5875 206.939 54.8352 205.334 55.687C203.728 56.5388 201.932 56.9665 200.115 56.9295C189.444 56.9295 184.951 47.7564 184.951 38.3961C184.951 29.5974 189.631 21.3603 199.179 21.3603C203.298 21.3603 206.48 22.858 208.727 26.0405H208.914V12H219.959V55.9935ZM195.996 38.7705C195.996 43.4507 197.681 48.5052 202.736 48.5052C208.165 48.5052 209.288 43.4507 209.288 39.1449C209.288 34.2776 207.603 29.7846 202.736 29.7846C197.681 29.5974 195.996 34.4648 195.996 38.7705ZM221.644 32.5927C221.831 28.0997 223.89 25.2917 226.886 23.6068C229.881 21.9219 233.812 21.1731 237.556 21.1731C245.606 21.1731 253.282 22.858 253.282 32.4055V47.1948C253.282 50.0029 253.282 53.1854 254.592 55.8063H243.547C243.172 54.683 242.985 53.747 242.985 52.6238C239.99 55.8063 235.684 56.9295 231.753 56.9295C225.388 56.9295 220.146 53.747 220.146 46.6332C220.146 35.588 232.127 36.524 239.803 34.8392C241.675 34.4648 242.798 33.7159 242.798 31.6567C242.798 29.0358 239.803 28.0997 237.369 28.0997C234.374 28.0997 232.315 29.4102 231.753 32.4055H221.644V32.5927ZM235.871 50.1901C241.113 50.1901 242.985 47.1948 242.611 40.2682C241.113 41.2042 238.118 41.3914 235.871 42.1402C233.438 42.7018 231.378 43.8251 231.378 46.446C231.191 49.0669 233.438 50.1901 235.871 50.1901ZM254.966 22.1091H265.637V28.0997H265.824C267.509 23.794 271.253 21.5475 275.934 21.5475C276.87 21.5475 278.742 21.5475 279.678 21.7347V31.8439C278.18 31.4695 275.934 31.2823 274.436 31.2823C269.007 31.2823 266.199 35.0264 266.199 39.3321V55.9935H255.154V22.1091H254.966Z" fill="white"/>
<path d="M268.633 44.9482H279.678V55.9934H268.633V44.9482Z" fill="white"/>
</g>
<defs>
<clipPath id="clip0_845_6599">
<rect width="278.938" height="44.9295" fill="white" transform="translate(0.740234 12)"/>
</clipPath>
</defs>
</svg>
