<svg width="28" height="14" viewBox="0 0 28 14" fill="none" xmlns="http://www.w3.org/2000/svg">
<path fill-rule="evenodd" clip-rule="evenodd" d="M0.238582 13.3879C3.95588 13.3879 6.96935 10.5 6.96935 6.93763C6.96935 3.37521 3.95588 0.487305 0.238582 0.487305H27.7029C27.7093 0.487305 27.7144 0.492485 27.7144 0.498876C27.7144 0.504912 27.7098 0.509937 27.7037 0.510423C24.2551 0.789492 21.5469 3.56047 21.5469 6.93763C21.5469 10.3148 24.2551 13.0858 27.7037 13.3648C27.7098 13.3653 27.7144 13.3703 27.7144 13.3764C27.7144 13.3828 27.7093 13.3879 27.7029 13.3879H0.238582ZM0.230471 0.487309C0.23047 0.487309 0.230469 0.487308 0.230469 0.487307C0.230469 0.487306 0.23047 0.487305 0.230471 0.487305H0.238582C0.235878 0.487305 0.233174 0.487306 0.230471 0.487309Z" fill="white"/>
</svg>
