<svg width="1000" height="1000" viewBox="0 0 1000 1000" fill="none" xmlns="http://www.w3.org/2000/svg">
<g filter="url(#filter0_d_747_5160)">
<g clip-path="url(#clip0_747_5160)">
<rect x="200" y="290" width="600" height="420" rx="15.2143" fill="white"/>
<rect width="600" height="33.3299" transform="translate(200 290)" fill="white"/>
<circle cx="236.665" cy="306.665" r="6.66495" fill="#FF4757"/>
<circle cx="256.337" cy="306.665" r="6.66495" fill="#FFCC4D"/>
<circle cx="276.007" cy="306.665" r="6.66495" fill="#36CC84"/>
<rect x="215" y="323" width="570" height="373" rx="12" fill="#3A4A59"/>
<path d="M389.061 509.5C389.061 494.346 401.345 482.062 416.499 482.062V482.062C431.653 482.062 443.938 494.346 443.938 509.5V509.5C443.938 524.654 431.653 536.939 416.499 536.939V536.939C401.345 536.939 389.061 524.654 389.061 509.5V509.5Z" fill="#5D95E8" fill-opacity="0.2"/>
<path d="M416.501 509.501C419.101 509.501 421.208 507.394 421.208 504.794C421.208 502.194 419.101 500.086 416.501 500.086C413.901 500.086 411.793 502.194 411.793 504.794C411.793 507.394 413.901 509.501 416.501 509.501Z" fill="#5D95E8"/>
<path d="M416.502 511.855C411.785 511.855 407.943 515.019 407.943 518.917C407.943 519.181 408.15 519.388 408.414 519.388H424.59C424.853 519.388 425.06 519.181 425.06 518.917C425.06 515.019 421.219 511.855 416.502 511.855Z" fill="#5D95E8"/>
<path d="M416.499 534.829C402.511 534.829 391.171 523.489 391.171 509.5H386.95C386.95 525.82 400.18 539.05 416.499 539.05V534.829ZM441.828 509.5C441.828 523.489 430.488 534.829 416.499 534.829V539.05C432.819 539.05 446.049 525.82 446.049 509.5H441.828ZM416.499 484.172C430.488 484.172 441.828 495.512 441.828 509.5H446.049C446.049 493.181 432.819 479.951 416.499 479.951V484.172ZM416.499 479.951C400.18 479.951 386.95 493.181 386.95 509.5H391.171C391.171 495.512 402.511 484.172 416.499 484.172V479.951Z" fill="#5D95E8"/>
<rect x="379.563" y="472.563" width="73.8738" height="73.8738" rx="36.9369" stroke="#5D95E8" stroke-opacity="0.5" stroke-width="2.11068"/>
<rect x="369.01" y="462.009" width="94.9807" height="94.9807" rx="47.4903" stroke="#5D95E8" stroke-opacity="0.2" stroke-width="2.11068"/>
<rect x="245.528" y="353.528" width="341.945" height="311.945" rx="15.4723" stroke="white" stroke-opacity="0.2" stroke-width="1.05534"/>
<path d="M652.061 427.25C652.061 412.096 664.345 399.812 679.499 399.812V399.812C694.653 399.812 706.938 412.096 706.938 427.25V427.25C706.938 442.404 694.653 454.689 679.499 454.689V454.689C664.345 454.689 652.061 442.404 652.061 427.25V427.25Z" fill="#FFCC4D" fill-opacity="0.2"/>
<path d="M679.501 427.251C682.101 427.251 684.208 425.144 684.208 422.544C684.208 419.944 682.101 417.836 679.501 417.836C676.901 417.836 674.793 419.944 674.793 422.544C674.793 425.144 676.901 427.251 679.501 427.251Z" fill="#FFCC4D"/>
<path d="M679.502 429.605C674.785 429.605 670.943 432.769 670.943 436.667C670.943 436.931 671.15 437.138 671.414 437.138H687.59C687.853 437.138 688.06 436.931 688.06 436.667C688.06 432.769 684.219 429.605 679.502 429.605Z" fill="#FFCC4D"/>
<rect x="604.528" y="353.528" width="149.945" height="147.445" rx="20.5791" stroke="#B8C1C9" stroke-opacity="0.2" stroke-width="1.05534"/>
<path d="M652.061 591.75C652.061 576.596 664.345 564.312 679.499 564.312V564.312C694.653 564.312 706.938 576.596 706.938 591.75V591.75C706.938 606.904 694.653 619.189 679.499 619.189V619.189C664.345 619.189 652.061 606.904 652.061 591.75V591.75Z" fill="#FFCC4D" fill-opacity="0.2"/>
<path d="M679.501 591.751C682.101 591.751 684.208 589.644 684.208 587.044C684.208 584.444 682.101 582.336 679.501 582.336C676.901 582.336 674.793 584.444 674.793 587.044C674.793 589.644 676.901 591.751 679.501 591.751Z" fill="#FFCC4D"/>
<path d="M679.502 594.105C674.785 594.105 670.943 597.269 670.943 601.167C670.943 601.431 671.15 601.638 671.414 601.638H687.59C687.853 601.638 688.06 601.431 688.06 601.167C688.06 597.269 684.219 594.105 679.502 594.105Z" fill="#FFCC4D"/>
<rect x="604.528" y="518.028" width="149.945" height="147.445" rx="20.5791" stroke="white" stroke-opacity="0.2" stroke-width="1.05534"/>
</g>
</g>
<g filter="url(#filter1_d_747_5160)">
<rect x="256" y="545" width="230.31" height="241" rx="14.2677" fill="white"/>
<path d="M281.415 575.528H279.325L278.446 573.106H274.669L273.79 575.528H271.699L275.822 564.875H277.336L281.415 575.528ZM277.884 571.333L276.572 567.686L275.246 571.333H277.884ZM285.072 575.716C283.976 575.716 283.111 575.413 282.477 574.808C281.852 574.192 281.54 573.342 281.54 572.256V567.701H283.428V572.256C283.428 572.785 283.573 573.207 283.861 573.525C284.159 573.842 284.562 574 285.072 574C285.591 574 285.994 573.842 286.283 573.525C286.581 573.207 286.73 572.785 286.73 572.256V567.701H288.618V572.256C288.618 573.342 288.301 574.192 287.667 574.808C287.042 575.413 286.177 575.716 285.072 575.716ZM294.649 573.597L295.24 575.067C294.625 575.499 293.871 575.716 292.977 575.716C291.189 575.716 290.296 574.697 290.296 572.66V569.286H288.998V567.701H290.325V564.933H292.184V567.701H294.808V569.286H292.184V572.588C292.184 573.529 292.564 574 293.323 574C293.765 574 294.207 573.866 294.649 573.597ZM294.971 571.607C294.971 570.454 295.36 569.483 296.139 568.695C296.936 567.898 297.941 567.499 299.151 567.499C300.372 567.499 301.371 567.898 302.15 568.695C302.938 569.483 303.332 570.454 303.332 571.607C303.332 572.78 302.938 573.76 302.15 574.548C301.371 575.336 300.372 575.73 299.151 575.73C297.931 575.73 296.927 575.336 296.139 574.548C295.36 573.76 294.971 572.78 294.971 571.607ZM301.444 571.607C301.444 570.944 301.222 570.387 300.78 569.935C300.329 569.474 299.786 569.243 299.151 569.243C298.517 569.243 297.974 569.474 297.522 569.935C297.08 570.387 296.859 570.944 296.859 571.607C296.859 572.28 297.08 572.842 297.522 573.294C297.974 573.755 298.517 573.986 299.151 573.986C299.786 573.986 300.329 573.755 300.78 573.294C301.222 572.842 301.444 572.28 301.444 571.607ZM313.457 567.484C314.379 567.484 315.139 567.782 315.734 568.378C316.33 568.974 316.628 569.786 316.628 570.814V575.528H314.74V571.16C314.74 570.536 314.591 570.055 314.293 569.719C314.005 569.382 313.61 569.214 313.111 569.214C312.582 569.214 312.15 569.397 311.813 569.762C311.477 570.127 311.309 570.613 311.309 571.218V575.528H309.435V571.175C309.435 570.569 309.281 570.094 308.973 569.748C308.676 569.392 308.277 569.214 307.777 569.214C307.248 569.214 306.811 569.402 306.465 569.776C306.129 570.142 305.961 570.627 305.961 571.232V575.528H304.087V567.701H305.932V568.825C306.153 568.412 306.475 568.085 306.898 567.845C307.33 567.605 307.801 567.484 308.31 567.484C308.839 567.494 309.31 567.619 309.723 567.859C310.136 568.099 310.444 568.441 310.646 568.883C310.924 568.441 311.314 568.099 311.813 567.859C312.313 567.609 312.861 567.484 313.457 567.484ZM323.736 568.695V567.701H325.524V575.528H323.736V574.562C323.054 575.331 322.204 575.716 321.185 575.716C320.06 575.716 319.133 575.322 318.403 574.534C317.672 573.746 317.307 572.761 317.307 571.578C317.307 570.396 317.672 569.426 318.403 568.666C319.143 567.898 320.07 567.513 321.185 567.513C322.184 567.513 323.035 567.907 323.736 568.695ZM323.78 571.607C323.78 570.944 323.563 570.382 323.131 569.921C322.698 569.459 322.146 569.229 321.473 569.229C320.8 569.229 320.248 569.459 319.815 569.921C319.393 570.392 319.181 570.954 319.181 571.607C319.181 572.27 319.393 572.837 319.815 573.308C320.248 573.77 320.8 574 321.473 574C322.146 574 322.698 573.77 323.131 573.308C323.563 572.847 323.78 572.28 323.78 571.607ZM331.663 573.597L332.254 575.067C331.639 575.499 330.884 575.716 329.99 575.716C328.203 575.716 327.309 574.697 327.309 572.66V569.286H326.012V567.701H327.338V564.933H329.197V567.701H331.821V569.286H329.197V572.588C329.197 573.529 329.577 574 330.336 574C330.778 574 331.22 573.866 331.663 573.597ZM333.524 566.764C333.178 566.764 332.89 566.653 332.659 566.432C332.428 566.211 332.313 565.927 332.313 565.582C332.313 565.245 332.428 564.966 332.659 564.745C332.899 564.515 333.188 564.399 333.524 564.399C333.86 564.399 334.139 564.515 334.36 564.745C334.591 564.966 334.706 565.245 334.706 565.582C334.706 565.927 334.591 566.211 334.36 566.432C334.139 566.653 333.86 566.764 333.524 566.764ZM334.447 567.701V575.528H332.558V567.701H334.447ZM339.315 575.701C338.113 575.701 337.119 575.317 336.331 574.548C335.562 573.779 335.177 572.799 335.177 571.607C335.177 570.416 335.567 569.435 336.345 568.666C337.133 567.898 338.142 567.513 339.372 567.513C340.18 567.513 340.905 567.705 341.549 568.09C342.203 568.465 342.688 568.988 343.005 569.661L341.477 570.483C340.977 569.656 340.285 569.243 339.401 569.243C338.728 569.243 338.166 569.469 337.715 569.921C337.272 570.363 337.051 570.925 337.051 571.607C337.051 572.28 337.268 572.842 337.7 573.294C338.133 573.746 338.68 573.971 339.344 573.971C339.776 573.971 340.184 573.861 340.569 573.64C340.963 573.409 341.256 573.111 341.448 572.746L342.976 573.64C342.63 574.274 342.131 574.779 341.477 575.154C340.833 575.519 340.112 575.701 339.315 575.701ZM349.53 568.695V567.701H351.317V575.528H349.53V574.562C348.847 575.331 347.997 575.716 346.978 575.716C345.854 575.716 344.926 575.322 344.196 574.534C343.466 573.746 343.1 572.761 343.1 571.578C343.1 570.396 343.466 569.426 344.196 568.666C344.936 567.898 345.863 567.513 346.978 567.513C347.978 567.513 348.828 567.907 349.53 568.695ZM349.573 571.607C349.573 570.944 349.357 570.382 348.924 569.921C348.492 569.459 347.939 569.229 347.266 569.229C346.594 569.229 346.041 569.459 345.609 569.921C345.186 570.392 344.974 570.954 344.974 571.607C344.974 572.27 345.186 572.837 345.609 573.308C346.041 573.77 346.594 574 347.266 574C347.939 574 348.492 573.77 348.924 573.308C349.357 572.847 349.573 572.28 349.573 571.607ZM354.385 564.572V575.528H352.511V564.572H354.385ZM357.451 564.572V575.528H355.577V564.572H357.451ZM362.118 572.991L363.977 567.701H366.024L362.853 576.033C362.469 577.004 362.022 577.715 361.512 578.166C361.013 578.628 360.397 578.858 359.667 578.858C359.071 578.858 358.591 578.733 358.226 578.484L358.528 576.898C358.893 577.071 359.225 577.157 359.523 577.157C360.157 577.157 360.667 576.734 361.051 575.889L361.238 575.456L357.822 567.701H359.999L362.118 572.991ZM377.626 575.528H375.536L374.656 573.106H370.879L370 575.528H367.91L372.033 564.875H373.546L377.626 575.528ZM374.094 571.333L372.782 567.686L371.456 571.333H374.094ZM383.776 568.695V564.572H385.65V575.528H383.819V574.505C383.166 575.312 382.335 575.716 381.325 575.716C380.201 575.716 379.274 575.327 378.543 574.548C377.803 573.75 377.433 572.77 377.433 571.607C377.433 570.464 377.803 569.493 378.543 568.695C379.293 567.907 380.215 567.513 381.311 567.513C382.311 567.513 383.132 567.907 383.776 568.695ZM381.585 574C382.267 574 382.82 573.77 383.243 573.308C383.666 572.837 383.877 572.27 383.877 571.607C383.877 570.944 383.661 570.382 383.228 569.921C382.815 569.459 382.267 569.229 381.585 569.229C380.903 569.229 380.355 569.459 379.942 569.921C379.519 570.392 379.307 570.954 379.307 571.607C379.307 572.27 379.519 572.837 379.942 573.308C380.355 573.77 380.903 574 381.585 574ZM396.214 567.484C397.137 567.484 397.896 567.782 398.492 568.378C399.088 568.974 399.386 569.786 399.386 570.814V575.528H397.497V571.16C397.497 570.536 397.348 570.055 397.05 569.719C396.762 569.382 396.368 569.214 395.868 569.214C395.34 569.214 394.907 569.397 394.571 569.762C394.235 570.127 394.066 570.613 394.066 571.218V575.528H392.192V571.175C392.192 570.569 392.039 570.094 391.731 569.748C391.433 569.392 391.034 569.214 390.535 569.214C390.006 569.214 389.569 569.402 389.223 569.776C388.886 570.142 388.718 570.627 388.718 571.232V575.528H386.844V567.701H388.689V568.825C388.91 568.412 389.232 568.085 389.655 567.845C390.088 567.605 390.559 567.484 391.068 567.484C391.597 567.494 392.067 567.619 392.481 567.859C392.894 568.099 393.201 568.441 393.403 568.883C393.682 568.441 394.071 568.099 394.571 567.859C395.071 567.609 395.619 567.484 396.214 567.484ZM401.477 566.764C401.131 566.764 400.843 566.653 400.612 566.432C400.382 566.211 400.267 565.927 400.267 565.582C400.267 565.245 400.382 564.966 400.612 564.745C400.853 564.515 401.141 564.399 401.477 564.399C401.814 564.399 402.092 564.515 402.314 564.745C402.544 564.966 402.66 565.245 402.66 565.582C402.66 565.927 402.544 566.211 402.314 566.432C402.092 566.653 401.814 566.764 401.477 566.764ZM402.4 567.701V575.528H400.512V567.701H402.4ZM408.493 573.597L409.085 575.067C408.469 575.499 407.715 575.716 406.821 575.716C405.034 575.716 404.14 574.697 404.14 572.66V569.286H402.843V567.701H404.169V564.933H406.028V567.701H408.652V569.286H406.028V572.588C406.028 573.529 406.408 574 407.167 574C407.609 574 408.051 573.866 408.493 573.597Z" fill="#425A6F"/>
<path d="M459.064 582.693C453.301 582.693 448.617 578.009 448.617 572.246C448.617 566.484 453.301 561.8 459.064 561.8C464.826 561.8 469.51 566.484 469.51 572.246C469.51 578.009 464.826 582.693 459.064 582.693ZM459.064 563.257C454.108 563.257 450.075 567.29 450.075 572.246C450.075 577.202 454.108 581.235 459.064 581.235C464.02 581.235 468.053 577.202 468.053 572.246C468.053 567.29 464.02 563.257 459.064 563.257Z" fill="#818FA9"/>
<path d="M456.312 575.725C456.128 575.725 455.943 575.657 455.797 575.511C455.515 575.229 455.515 574.763 455.797 574.481L461.298 568.981C461.579 568.699 462.046 568.699 462.328 568.981C462.609 569.263 462.609 569.729 462.328 570.011L456.827 575.511C456.691 575.657 456.497 575.725 456.312 575.725Z" fill="#818FA9"/>
<path d="M461.813 575.725C461.628 575.725 461.443 575.657 461.298 575.511L455.797 570.011C455.515 569.729 455.515 569.263 455.797 568.981C456.079 568.699 456.546 568.699 456.827 568.981L462.328 574.481C462.609 574.763 462.609 575.229 462.328 575.511C462.182 575.657 461.997 575.725 461.813 575.725Z" fill="#818FA9"/>
<path fill-rule="evenodd" clip-rule="evenodd" d="M284.705 599.456C274.21 599.456 271.586 602.08 271.586 612.575C271.586 623.07 274.21 625.694 284.705 625.694C295.2 625.694 297.824 623.07 297.824 612.575C297.824 602.08 295.2 599.456 284.705 599.456Z" fill="#5D95E8"/>
<path d="M284.756 604.306C282.576 604.306 280.803 606.078 280.803 608.259C280.803 610.398 282.476 612.129 284.656 612.204C284.723 612.196 284.789 612.196 284.839 612.204C284.856 612.204 284.864 612.204 284.881 612.204C284.889 612.204 284.889 612.204 284.898 612.204C287.028 612.129 288.701 610.398 288.709 608.259C288.709 606.078 286.937 604.306 284.756 604.306Z" fill="white"/>
<path d="M288.986 614.417C286.664 612.869 282.877 612.869 280.538 614.417C279.481 615.124 278.898 616.081 278.898 617.105C278.898 618.129 279.481 619.078 280.53 619.777C281.695 620.559 283.226 620.95 284.758 620.95C286.289 620.95 287.821 620.559 288.986 619.777C290.034 619.069 290.617 618.121 290.617 617.089C290.609 616.065 290.034 615.116 288.986 614.417Z" fill="white"/>
<rect x="313.371" y="599.455" width="94.2621" height="11.6613" rx="5.83064" fill="#F2F6FC"/>
<rect x="313.371" y="615.976" width="67.0524" height="11.6613" rx="5.83064" fill="#F2F6FC"/>
<path fill-rule="evenodd" clip-rule="evenodd" d="M284.705 643.185C274.21 643.185 271.586 645.808 271.586 656.304C271.586 666.799 274.21 669.422 284.705 669.422C295.2 669.422 297.824 666.799 297.824 656.304C297.824 645.808 295.2 643.185 284.705 643.185Z" fill="#5D95E8"/>
<path d="M284.756 648.034C282.576 648.034 280.803 649.807 280.803 651.988C280.803 654.127 282.476 655.858 284.656 655.933C284.723 655.924 284.789 655.924 284.839 655.933C284.856 655.933 284.864 655.933 284.881 655.933C284.889 655.933 284.889 655.933 284.898 655.933C287.028 655.858 288.701 654.127 288.709 651.988C288.709 649.807 286.937 648.034 284.756 648.034Z" fill="white"/>
<path d="M288.986 658.145C286.664 656.597 282.877 656.597 280.538 658.145C279.481 658.853 278.898 659.81 278.898 660.834C278.898 661.857 279.481 662.806 280.53 663.505C281.695 664.288 283.226 664.679 284.758 664.679C286.289 664.679 287.821 664.288 288.986 663.505C290.034 662.798 290.617 661.849 290.617 660.817C290.609 659.793 290.034 658.845 288.986 658.145Z" fill="white"/>
<rect x="313.371" y="643.185" width="94.2621" height="11.6613" rx="5.83064" fill="#F2F6FC"/>
<rect x="313.371" y="659.705" width="67.0524" height="11.6613" rx="5.83064" fill="#F2F6FC"/>
<path fill-rule="evenodd" clip-rule="evenodd" d="M284.705 686.916C274.21 686.916 271.586 689.54 271.586 700.035C271.586 710.53 274.21 713.154 284.705 713.154C295.2 713.154 297.824 710.53 297.824 700.035C297.824 689.54 295.2 686.916 284.705 686.916Z" fill="#5D95E8"/>
<path d="M284.756 691.765C282.576 691.765 280.803 693.537 280.803 695.718C280.803 697.857 282.476 699.588 284.656 699.663C284.723 699.655 284.789 699.655 284.839 699.663C284.856 699.663 284.864 699.663 284.881 699.663C284.889 699.663 284.889 699.663 284.898 699.663C287.028 699.588 288.701 697.857 288.709 695.718C288.709 693.537 286.937 691.765 284.756 691.765Z" fill="white"/>
<path d="M288.986 701.876C286.664 700.328 282.877 700.328 280.538 701.876C279.481 702.583 278.898 703.54 278.898 704.564C278.898 705.588 279.481 706.537 280.53 707.236C281.695 708.018 283.226 708.409 284.758 708.409C286.289 708.409 287.821 708.018 288.986 707.236C290.034 706.528 290.617 705.58 290.617 704.548C290.609 703.524 290.034 702.575 288.986 701.876Z" fill="white"/>
<rect x="313.371" y="686.915" width="94.2621" height="11.6613" rx="5.83064" fill="#F2F6FC"/>
<rect x="313.371" y="703.436" width="67.0524" height="11.6613" rx="5.83064" fill="#F2F6FC"/>
<path fill-rule="evenodd" clip-rule="evenodd" d="M284.705 730.645C274.21 730.645 271.586 733.268 271.586 743.763C271.586 754.259 274.21 756.882 284.705 756.882C295.2 756.882 297.824 754.259 297.824 743.763C297.824 733.268 295.2 730.645 284.705 730.645Z" fill="#5D95E8"/>
<path d="M284.756 735.494C282.576 735.494 280.803 737.267 280.803 739.447C280.803 741.586 282.476 743.318 284.656 743.393C284.723 743.384 284.789 743.384 284.839 743.393C284.856 743.393 284.864 743.393 284.881 743.393C284.889 743.393 284.889 743.393 284.898 743.393C287.028 743.318 288.701 741.586 288.709 739.447C288.709 737.267 286.937 735.494 284.756 735.494Z" fill="white"/>
<path d="M288.986 745.605C286.664 744.057 282.877 744.057 280.538 745.605C279.481 746.313 278.898 747.27 278.898 748.294C278.898 749.317 279.481 750.266 280.53 750.965C281.695 751.748 283.226 752.139 284.758 752.139C286.289 752.139 287.821 751.748 288.986 750.965C290.034 750.258 290.617 749.309 290.617 748.277C290.609 747.253 290.034 746.304 288.986 745.605Z" fill="white"/>
<rect x="313.371" y="730.645" width="94.2621" height="11.6613" rx="5.83064" fill="#F2F6FC"/>
<rect x="313.371" y="747.165" width="67.0524" height="11.6613" rx="5.83064" fill="#F2F6FC"/>
</g>
<g filter="url(#filter2_d_747_5160)">
<rect x="528.311" y="654.899" width="230.31" height="109.81" rx="14.2677" fill="white"/>
<path fill-rule="evenodd" clip-rule="evenodd" d="M563.871 689.831C547.891 689.831 543.896 693.826 543.896 709.806C543.896 725.786 547.891 729.781 563.871 729.781C579.851 729.781 583.846 725.786 583.846 709.806C583.846 693.826 579.851 689.831 563.871 689.831Z" fill="#5D95E8"/>
<path d="M567.199 703.355C567.199 704.387 566.359 705.228 565.327 705.228H562.414C561.898 705.228 561.432 705.02 561.09 704.678C560.749 704.337 560.541 703.871 560.541 703.355C560.541 702.323 561.382 701.482 562.414 701.482H565.327C565.843 701.482 566.309 701.69 566.65 702.032C566.991 702.373 567.199 702.839 567.199 703.355Z" fill="white"/>
<path d="M569.556 704.004C569.364 703.846 569.148 703.721 568.915 703.63C568.673 703.538 568.432 703.73 568.382 703.979C568.099 705.402 566.842 706.476 565.328 706.476H562.415C561.582 706.476 560.8 706.152 560.209 705.561C559.776 705.128 559.477 704.579 559.36 703.988C559.31 703.738 559.061 703.538 558.819 703.638C557.854 704.029 557.213 704.911 557.213 706.684V714.799C557.213 717.296 558.703 718.128 560.542 718.128H567.2C569.04 718.128 570.529 717.296 570.529 714.799V706.684C570.529 705.328 570.155 704.495 569.556 704.004ZM560.542 710.013H563.871C564.212 710.013 564.495 710.296 564.495 710.638C564.495 710.979 564.212 711.262 563.871 711.262H560.542C560.201 711.262 559.918 710.979 559.918 710.638C559.918 710.296 560.201 710.013 560.542 710.013ZM567.2 714.591H560.542C560.201 714.591 559.918 714.308 559.918 713.967C559.918 713.625 560.201 713.342 560.542 713.342H567.2C567.542 713.342 567.825 713.625 567.825 713.967C567.825 714.308 567.542 714.591 567.2 714.591Z" fill="white"/>
<path d="M609.224 687.82H607.134L606.254 685.398H602.478L601.598 687.82H599.508L603.631 677.167H605.144L609.224 687.82ZM605.692 683.625L604.38 679.978L603.054 683.625H605.692ZM614.084 685.889L614.675 687.359C614.06 687.791 613.306 688.008 612.412 688.008C610.625 688.008 609.731 686.989 609.731 684.952V681.578H608.433V679.993H609.76V677.225H611.619V679.993H614.243V681.578H611.619V684.88C611.619 685.821 611.999 686.292 612.758 686.292C613.2 686.292 613.642 686.158 614.084 685.889ZM619.896 685.889L620.487 687.359C619.872 687.791 619.117 688.008 618.223 688.008C616.436 688.008 615.542 686.989 615.542 684.952V681.578H614.245V679.993H615.571V677.225H617.431V679.993H620.054V681.578H617.431V684.88C617.431 685.821 617.81 686.292 618.569 686.292C619.012 686.292 619.454 686.158 619.896 685.889ZM628.175 683.741C628.175 683.991 628.156 684.269 628.117 684.577H622.149C622.274 685.134 622.538 685.576 622.942 685.903C623.355 686.22 623.889 686.379 624.542 686.379C625.493 686.379 626.354 686.11 627.122 685.571L627.872 686.912C626.901 687.633 625.767 687.993 624.47 687.993C623.759 687.993 623.124 687.878 622.567 687.647C622.019 687.417 621.577 687.109 621.241 686.725C620.904 686.331 620.65 685.898 620.477 685.427C620.313 684.947 620.232 684.437 620.232 683.899C620.232 682.708 620.607 681.732 621.356 680.973C622.115 680.194 623.096 679.805 624.297 679.805C625.421 679.805 626.349 680.161 627.079 680.872C627.81 681.574 628.175 682.53 628.175 683.741ZM624.297 681.377C623.749 681.377 623.283 681.535 622.899 681.852C622.524 682.169 622.274 682.602 622.149 683.15H626.33C626.253 682.602 626.027 682.169 625.652 681.852C625.287 681.535 624.835 681.377 624.297 681.377ZM630.785 687.82H628.911V679.993H630.756V681.088C630.967 680.685 631.289 680.367 631.722 680.137C632.154 679.906 632.654 679.791 633.221 679.791C634.076 679.791 634.802 680.074 635.398 680.641C635.994 681.208 636.291 682.011 636.291 683.049V687.82H634.403V683.568C634.403 682.924 634.249 682.419 633.942 682.054C633.634 681.689 633.216 681.506 632.688 681.506C632.13 681.506 631.674 681.703 631.318 682.097C630.962 682.482 630.785 682.981 630.785 683.597V687.82ZM643.293 680.987V676.864H645.167V687.82H643.337V686.797C642.683 687.604 641.852 688.008 640.843 688.008C639.718 688.008 638.791 687.618 638.061 686.84C637.321 686.042 636.951 685.062 636.951 683.899C636.951 682.756 637.321 681.785 638.061 680.987C638.81 680.199 639.733 679.805 640.828 679.805C641.828 679.805 642.65 680.199 643.293 680.987ZM641.102 686.292C641.785 686.292 642.337 686.062 642.76 685.6C643.183 685.129 643.394 684.562 643.394 683.899C643.394 683.236 643.178 682.674 642.746 682.213C642.332 681.751 641.785 681.521 641.102 681.521C640.42 681.521 639.872 681.751 639.459 682.213C639.036 682.684 638.825 683.246 638.825 683.899C638.825 684.562 639.036 685.129 639.459 685.6C639.872 686.062 640.42 686.292 641.102 686.292ZM652.373 680.987V679.993H654.16V687.82H652.373V686.854C651.69 687.623 650.84 688.008 649.821 688.008C648.697 688.008 647.769 687.614 647.039 686.826C646.309 686.038 645.943 685.053 645.943 683.87C645.943 682.688 646.309 681.718 647.039 680.958C647.779 680.19 648.706 679.805 649.821 679.805C650.821 679.805 651.671 680.199 652.373 680.987ZM652.416 683.899C652.416 683.236 652.2 682.674 651.767 682.213C651.335 681.751 650.782 681.521 650.11 681.521C649.437 681.521 648.884 681.751 648.452 682.213C648.029 682.684 647.817 683.246 647.817 683.899C647.817 684.562 648.029 685.129 648.452 685.6C648.884 686.062 649.437 686.292 650.11 686.292C650.782 686.292 651.335 686.062 651.767 685.6C652.2 685.139 652.416 684.572 652.416 683.899ZM657.228 687.82H655.354V679.993H657.2V681.088C657.411 680.685 657.733 680.367 658.165 680.137C658.598 679.906 659.098 679.791 659.665 679.791C660.52 679.791 661.246 680.074 661.841 680.641C662.437 681.208 662.735 682.011 662.735 683.049V687.82H660.847V683.568C660.847 682.924 660.693 682.419 660.385 682.054C660.078 681.689 659.66 681.506 659.131 681.506C658.574 681.506 658.117 681.703 657.762 682.097C657.406 682.482 657.228 682.981 657.228 683.597V687.82ZM667.532 687.993C666.33 687.993 665.336 687.609 664.547 686.84C663.779 686.071 663.394 685.091 663.394 683.899C663.394 682.708 663.783 681.727 664.562 680.958C665.35 680.19 666.359 679.805 667.589 679.805C668.396 679.805 669.122 679.997 669.766 680.382C670.419 680.757 670.905 681.28 671.222 681.953L669.694 682.775C669.194 681.948 668.502 681.535 667.618 681.535C666.945 681.535 666.383 681.761 665.931 682.213C665.489 682.655 665.268 683.217 665.268 683.899C665.268 684.572 665.485 685.134 665.917 685.586C666.349 686.038 666.897 686.263 667.56 686.263C667.993 686.263 668.401 686.153 668.786 685.932C669.18 685.701 669.473 685.403 669.665 685.038L671.193 685.932C670.847 686.566 670.347 687.071 669.694 687.446C669.05 687.811 668.329 687.993 667.532 687.993ZM679.26 683.741C679.26 683.991 679.241 684.269 679.203 684.577H673.234C673.359 685.134 673.624 685.576 674.027 685.903C674.441 686.22 674.974 686.379 675.627 686.379C676.579 686.379 677.439 686.11 678.208 685.571L678.958 686.912C677.987 687.633 676.853 687.993 675.555 687.993C674.844 687.993 674.21 687.878 673.653 687.647C673.105 687.417 672.663 687.109 672.326 686.725C671.99 686.331 671.735 685.898 671.562 685.427C671.399 684.947 671.317 684.437 671.317 683.899C671.317 682.708 671.692 681.732 672.442 680.973C673.201 680.194 674.181 679.805 675.382 679.805C676.507 679.805 677.434 680.161 678.165 680.872C678.895 681.574 679.26 682.53 679.26 683.741ZM675.382 681.377C674.835 681.377 674.369 681.535 673.984 681.852C673.609 682.169 673.359 682.602 673.234 683.15H677.415C677.338 682.602 677.112 682.169 676.737 681.852C676.372 681.535 675.921 681.377 675.382 681.377Z" fill="#425A6F"/>
<path d="M599.421 705.852L602.521 703.286H603.804V713.939H602.16V705.521L600.315 707.02L599.421 705.852ZM610.355 709.543L607.732 712.411H612.129V713.939H605.382V712.556L608.77 708.952L609.577 708.058C609.779 707.827 609.957 707.544 610.11 707.207C610.274 706.871 610.355 706.568 610.355 706.299C610.355 705.819 610.182 705.425 609.836 705.117C609.5 704.8 609.077 704.641 608.568 704.641C607.741 704.641 606.901 705.04 606.045 705.838L605.137 704.656C606.194 703.618 607.362 703.099 608.64 703.099C609.62 703.099 610.423 703.397 611.047 703.993C611.682 704.589 611.999 705.362 611.999 706.314C611.999 707.284 611.451 708.361 610.355 709.543ZM614.311 715.713H612.682L619.53 702.047H621.159L614.311 715.713ZM627.481 713.637C626.914 713.954 626.27 714.112 625.549 714.112C624.829 714.112 624.185 713.954 623.618 713.637C622.637 713.07 621.955 712.061 621.571 710.609C621.427 709.946 621.354 709.278 621.354 708.606C621.354 707.923 621.427 707.26 621.571 706.616C621.715 705.972 621.96 705.381 622.306 704.843C622.662 704.305 623.099 703.882 623.618 703.575C624.175 703.257 624.819 703.099 625.549 703.099C626.27 703.099 626.914 703.257 627.481 703.575C628.49 704.132 629.168 705.141 629.514 706.602C629.86 707.938 629.86 709.274 629.514 710.609C629.168 712.07 628.49 713.079 627.481 713.637ZM625.549 712.556C626.405 712.556 627.039 712.19 627.452 711.46C627.875 710.72 628.087 709.769 628.087 708.606C628.087 707.452 627.875 706.506 627.452 705.766C627.029 705.026 626.395 704.656 625.549 704.656C624.704 704.656 624.069 705.026 623.647 705.766C623.233 706.496 623.027 707.443 623.027 708.606C623.007 709.759 623.209 710.706 623.632 711.446C624.065 712.176 624.704 712.546 625.549 712.556ZM634.568 714.112C633.425 714.112 632.493 713.824 631.772 713.248C631.051 712.671 630.691 711.94 630.691 711.056C630.691 710.46 630.878 709.913 631.253 709.413C631.628 708.904 632.127 708.534 632.752 708.303V708.274C632.252 708.034 631.858 707.707 631.57 707.294C631.282 706.881 631.138 706.419 631.138 705.91C631.138 705.093 631.455 704.42 632.089 703.892C632.714 703.363 633.54 703.099 634.568 703.099C635.587 703.099 636.404 703.363 637.019 703.892C637.653 704.42 637.971 705.093 637.971 705.91C637.971 706.419 637.826 706.885 637.538 707.308C637.25 707.722 636.851 708.043 636.342 708.274V708.317C636.976 708.538 637.48 708.899 637.855 709.399C638.23 709.898 638.417 710.451 638.417 711.056C638.417 711.94 638.057 712.671 637.336 713.248C636.635 713.824 635.712 714.112 634.568 714.112ZM635.895 707.207C636.231 706.909 636.399 706.53 636.399 706.069C636.399 705.607 636.226 705.228 635.88 704.93C635.544 704.632 635.102 704.483 634.554 704.483C633.997 704.483 633.545 704.632 633.199 704.93C632.853 705.228 632.68 705.607 632.68 706.069C632.68 706.53 632.853 706.909 633.199 707.207C633.545 707.505 633.997 707.654 634.554 707.654C635.111 707.654 635.558 707.505 635.895 707.207ZM634.568 712.656C635.212 712.656 635.741 712.488 636.154 712.152C636.567 711.806 636.774 711.369 636.774 710.84C636.774 710.321 636.567 709.898 636.154 709.572C635.751 709.245 635.217 709.081 634.554 709.081C633.891 709.081 633.353 709.245 632.939 709.572C632.536 709.898 632.334 710.321 632.334 710.84C632.334 711.369 632.541 711.806 632.954 712.152C633.367 712.488 633.905 712.656 634.568 712.656ZM640.465 715.713H638.836L645.684 702.047H647.313L640.465 715.713ZM652.848 709.543L650.224 712.411H654.621V713.939H647.874V712.556L651.262 708.952L652.069 708.058C652.271 707.827 652.449 707.544 652.603 707.207C652.766 706.871 652.848 706.568 652.848 706.299C652.848 705.819 652.675 705.425 652.329 705.117C651.993 704.8 651.57 704.641 651.06 704.641C650.234 704.641 649.393 705.04 648.538 705.838L647.629 704.656C648.687 703.618 649.854 703.099 651.132 703.099C652.113 703.099 652.915 703.397 653.54 703.993C654.174 704.589 654.491 705.362 654.491 706.314C654.491 707.284 653.943 708.361 652.848 709.543ZM661.748 713.637C661.181 713.954 660.537 714.112 659.816 714.112C659.096 714.112 658.452 713.954 657.885 713.637C656.904 713.07 656.222 712.061 655.838 710.609C655.694 709.946 655.621 709.278 655.621 708.606C655.621 707.923 655.694 707.26 655.838 706.616C655.982 705.972 656.227 705.381 656.573 704.843C656.929 704.305 657.366 703.882 657.885 703.575C658.442 703.257 659.086 703.099 659.816 703.099C660.537 703.099 661.181 703.257 661.748 703.575C662.757 704.132 663.435 705.141 663.781 706.602C664.127 707.938 664.127 709.274 663.781 710.609C663.435 712.07 662.757 713.079 661.748 713.637ZM659.816 712.556C660.672 712.556 661.306 712.19 661.719 711.46C662.142 710.72 662.354 709.769 662.354 708.606C662.354 707.452 662.142 706.506 661.719 705.766C661.296 705.026 660.662 704.656 659.816 704.656C658.971 704.656 658.336 705.026 657.914 705.766C657.5 706.496 657.294 707.443 657.294 708.606C657.274 709.759 657.476 710.706 657.899 711.446C658.332 712.176 658.971 712.546 659.816 712.556ZM669.848 709.543L667.224 712.411H671.621V713.939H664.874V712.556L668.262 708.952L669.069 708.058C669.271 707.827 669.449 707.544 669.603 707.207C669.766 706.871 669.848 706.568 669.848 706.299C669.848 705.819 669.675 705.425 669.329 705.117C668.992 704.8 668.569 704.641 668.06 704.641C667.234 704.641 666.393 705.04 665.537 705.838L664.629 704.656C665.686 703.618 666.854 703.099 668.132 703.099C669.112 703.099 669.915 703.397 670.54 703.993C671.174 704.589 671.491 705.362 671.491 706.314C671.491 707.284 670.943 708.361 669.848 709.543ZM671.929 705.852L675.029 703.286H676.312V713.939H674.668V705.521L672.823 707.02L671.929 705.852ZM684.609 703.099C685.868 703.099 686.829 703.575 687.492 704.526C688.155 705.458 688.486 706.708 688.486 708.274C688.486 709.062 688.4 709.797 688.227 710.48C688.054 711.162 687.795 711.782 687.449 712.339C687.112 712.887 686.656 713.32 686.079 713.637C685.512 713.954 684.854 714.112 684.104 714.112C682.96 714.112 682.019 713.81 681.279 713.204L681.899 711.936C682.571 712.416 683.282 712.656 684.032 712.656C684.964 712.656 685.671 712.286 686.151 711.546C686.622 710.816 686.882 709.884 686.93 708.75C686.67 709.163 686.3 709.495 685.82 709.744C685.349 709.994 684.83 710.119 684.263 710.119C683.292 710.119 682.49 709.797 681.855 709.153C681.221 708.5 680.904 707.678 680.904 706.688C680.904 705.66 681.25 704.805 681.942 704.122C682.643 703.44 683.532 703.099 684.609 703.099ZM686.007 708.13C686.401 707.736 686.598 707.246 686.598 706.66C686.598 706.073 686.401 705.574 686.007 705.16C685.623 704.747 685.147 704.54 684.58 704.54C683.984 704.54 683.494 704.742 683.109 705.146C682.715 705.559 682.518 706.064 682.518 706.66C682.518 707.246 682.711 707.736 683.095 708.13C683.479 708.514 683.965 708.707 684.551 708.707C685.137 708.707 685.623 708.514 686.007 708.13ZM690.695 708.894C690.406 708.894 690.161 708.798 689.96 708.606C689.767 708.413 689.671 708.173 689.671 707.885C689.671 707.606 689.767 707.371 689.96 707.179C690.161 706.986 690.406 706.89 690.695 706.89C690.973 706.89 691.209 706.986 691.401 707.179C691.593 707.371 691.689 707.606 691.689 707.885C691.689 708.173 691.593 708.413 691.401 708.606C691.209 708.798 690.973 708.894 690.695 708.894ZM690.695 714.17C690.406 714.17 690.161 714.074 689.96 713.882C689.767 713.69 689.671 713.449 689.671 713.161C689.671 712.882 689.767 712.647 689.96 712.455C690.161 712.262 690.406 712.166 690.695 712.166C690.973 712.166 691.209 712.262 691.401 712.455C691.593 712.647 691.689 712.882 691.689 713.161C691.689 713.449 691.593 713.69 691.401 713.882C691.209 714.074 690.973 714.17 690.695 714.17ZM699.022 713.637C698.455 713.954 697.811 714.112 697.09 714.112C696.369 714.112 695.725 713.954 695.158 713.637C694.178 713.07 693.496 712.061 693.111 710.609C692.967 709.946 692.895 709.278 692.895 708.606C692.895 707.923 692.967 707.26 693.111 706.616C693.255 705.972 693.5 705.381 693.846 704.843C694.202 704.305 694.639 703.882 695.158 703.575C695.716 703.257 696.36 703.099 697.09 703.099C697.811 703.099 698.455 703.257 699.022 703.575C700.031 704.132 700.708 705.141 701.054 706.602C701.4 707.938 701.4 709.274 701.054 710.609C700.708 712.07 700.031 713.079 699.022 713.637ZM697.09 712.556C697.945 712.556 698.58 712.19 698.993 711.46C699.416 710.72 699.627 709.769 699.627 708.606C699.627 707.452 699.416 706.506 698.993 705.766C698.57 705.026 697.936 704.656 697.09 704.656C696.244 704.656 695.61 705.026 695.187 705.766C694.774 706.496 694.567 707.443 694.567 708.606C694.548 709.759 694.75 710.706 695.173 711.446C695.605 712.176 696.244 712.546 697.09 712.556ZM708.415 713.637C707.848 713.954 707.205 714.112 706.484 714.112C705.763 714.112 705.119 713.954 704.552 713.637C703.572 713.07 702.889 712.061 702.505 710.609C702.361 709.946 702.289 709.278 702.289 708.606C702.289 707.923 702.361 707.26 702.505 706.616C702.649 705.972 702.894 705.381 703.24 704.843C703.596 704.305 704.033 703.882 704.552 703.575C705.109 703.257 705.753 703.099 706.484 703.099C707.205 703.099 707.848 703.257 708.415 703.575C709.425 704.132 710.102 705.141 710.448 706.602C710.794 707.938 710.794 709.274 710.448 710.609C710.102 712.07 709.425 713.079 708.415 713.637ZM706.484 712.556C707.339 712.556 707.973 712.19 708.387 711.46C708.809 710.72 709.021 709.769 709.021 708.606C709.021 707.452 708.809 706.506 708.387 705.766C707.964 705.026 707.329 704.656 706.484 704.656C705.638 704.656 705.004 705.026 704.581 705.766C704.168 706.496 703.961 707.443 703.961 708.606C703.942 709.759 704.144 710.706 704.566 711.446C704.999 712.176 705.638 712.546 706.484 712.556ZM723.341 713.939H721.554L720.545 711.316H716.624L715.614 713.939H713.827L718.065 703.286H719.146L723.341 713.939ZM720.04 709.788L718.599 705.924L717.157 709.788H720.04ZM726.003 713.939H724.36V703.286H725.268L729.737 709.817L734.177 703.286H735.114V713.939H733.442V707.121L729.968 712.195H729.477L726.003 707.121V713.939Z" fill="#818FA9"/>
<rect x="599.393" y="726.324" width="59.2782" height="18.4637" rx="9.23185" fill="#22AC6A" fill-opacity="0.2"/>
<path d="M610.741 738.811H608.425V732.469H610.819C611.74 732.469 612.46 732.755 612.981 733.327C613.513 733.899 613.779 734.675 613.779 735.653C613.779 736.62 613.507 737.389 612.964 737.961C612.42 738.527 611.68 738.811 610.741 738.811ZM609.411 733.413V737.867H610.784C611.402 737.867 611.883 737.658 612.226 737.24C612.575 736.823 612.749 736.285 612.749 735.627C612.749 734.986 612.575 734.457 612.226 734.04C611.883 733.622 611.405 733.413 610.793 733.413H609.411ZM614.266 736.494C614.266 735.824 614.495 735.252 614.952 734.778C615.416 734.303 616.002 734.065 616.711 734.065C617.421 734.065 618.004 734.303 618.462 734.778C618.925 735.247 619.157 735.819 619.157 736.494C619.157 737.18 618.925 737.758 618.462 738.227C618.01 738.696 617.426 738.931 616.711 738.931C616.002 738.931 615.416 738.696 614.952 738.227C614.495 737.752 614.266 737.174 614.266 736.494ZM618.204 736.494C618.204 736.07 618.058 735.707 617.767 735.404C617.486 735.095 617.135 734.941 616.711 734.941C616.294 734.941 615.939 735.095 615.647 735.404C615.361 735.707 615.218 736.07 615.218 736.494C615.218 736.923 615.361 737.289 615.647 737.592C615.939 737.895 616.294 738.047 616.711 738.047C617.129 738.047 617.481 737.895 617.767 737.592C618.058 737.289 618.204 736.923 618.204 736.494ZM621.592 738.802H620.785L619.206 734.186H620.202L621.24 737.506L622.433 734.186H623.102L624.329 737.506L625.333 734.186H626.328L624.775 738.802H623.969L622.767 735.524L621.592 738.802ZM627.723 738.811H626.779V734.186H627.706V734.838C627.843 734.597 628.041 734.409 628.298 734.271C628.555 734.134 628.847 734.065 629.173 734.065C629.682 734.065 630.111 734.231 630.46 734.563C630.815 734.901 630.992 735.378 630.992 735.996V738.811H630.04V736.262C630.04 735.844 629.94 735.521 629.74 735.292C629.539 735.058 629.271 734.941 628.933 734.941C628.578 734.941 628.287 735.066 628.058 735.318C627.835 735.564 627.723 735.885 627.723 736.279V738.811ZM632.837 732.306V738.811H631.893V732.306H632.837ZM633.523 736.494C633.523 735.824 633.752 735.252 634.21 734.778C634.673 734.303 635.259 734.065 635.969 734.065C636.678 734.065 637.261 734.303 637.719 734.778C638.183 735.247 638.414 735.819 638.414 736.494C638.414 737.18 638.183 737.758 637.719 738.227C637.267 738.696 636.684 738.931 635.969 738.931C635.259 738.931 634.673 738.696 634.21 738.227C633.752 737.752 633.523 737.174 633.523 736.494ZM637.462 736.494C637.462 736.07 637.316 735.707 637.024 735.404C636.744 735.095 636.392 734.941 635.969 734.941C635.551 734.941 635.196 735.095 634.905 735.404C634.619 735.707 634.476 736.07 634.476 736.494C634.476 736.923 634.619 737.289 634.905 737.592C635.196 737.895 635.551 738.047 635.969 738.047C636.386 738.047 636.738 737.895 637.024 737.592C637.316 737.289 637.462 736.923 637.462 736.494ZM642.717 734.829V734.186H643.626V738.811H642.717V738.176C642.299 738.673 641.773 738.922 641.138 738.922C640.469 738.922 639.917 738.688 639.482 738.218C639.047 737.749 638.83 737.166 638.83 736.468C638.83 735.776 639.047 735.204 639.482 734.752C639.917 734.3 640.469 734.074 641.138 734.074C641.773 734.074 642.299 734.326 642.717 734.829ZM641.267 738.055C641.696 738.055 642.053 737.904 642.339 737.601C642.62 737.303 642.76 736.934 642.76 736.494C642.76 736.059 642.62 735.693 642.339 735.395C642.053 735.092 641.696 734.941 641.267 734.941C640.826 734.941 640.469 735.092 640.194 735.395C639.92 735.693 639.782 736.062 639.782 736.502C639.782 736.943 639.92 737.312 640.194 737.609C640.469 737.907 640.826 738.055 641.267 738.055ZM648.165 734.829V732.306H649.118V738.811H648.182V738.167C647.782 738.67 647.264 738.922 646.629 738.922C645.96 738.922 645.408 738.69 644.973 738.227C644.533 737.752 644.312 737.174 644.312 736.494C644.312 735.819 644.533 735.247 644.973 734.778C645.408 734.309 645.957 734.074 646.621 734.074C647.233 734.074 647.748 734.326 648.165 734.829ZM648.234 736.494C648.234 736.059 648.097 735.693 647.822 735.395C647.547 735.092 647.19 734.941 646.749 734.941C646.309 734.941 645.951 735.092 645.677 735.395C645.402 735.693 645.265 736.059 645.265 736.494C645.265 736.94 645.402 737.312 645.677 737.609C645.951 737.907 646.309 738.055 646.749 738.055C647.19 738.055 647.547 737.907 647.822 737.609C648.097 737.312 648.234 736.94 648.234 736.494Z" fill="#22AC6A"/>
</g>
<defs>
<filter id="filter0_d_747_5160" x="139.143" y="239.286" width="721.714" height="541.714" filterUnits="userSpaceOnUse" color-interpolation-filters="sRGB">
<feFlood flood-opacity="0" result="BackgroundImageFix"/>
<feColorMatrix in="SourceAlpha" type="matrix" values="0 0 0 0 0 0 0 0 0 0 0 0 0 0 0 0 0 0 127 0" result="hardAlpha"/>
<feOffset dy="10.1429"/>
<feGaussianBlur stdDeviation="30.4286"/>
<feComposite in2="hardAlpha" operator="out"/>
<feColorMatrix type="matrix" values="0 0 0 0 0.258824 0 0 0 0 0.352941 0 0 0 0 0.435294 0 0 0 0.1 0"/>
<feBlend mode="normal" in2="BackgroundImageFix" result="effect1_dropShadow_747_5160"/>
<feBlend mode="normal" in="SourceGraphic" in2="effect1_dropShadow_747_5160" result="shape"/>
</filter>
<filter id="filter1_d_747_5160" x="197.694" y="496.411" width="346.923" height="357.613" filterUnits="userSpaceOnUse" color-interpolation-filters="sRGB">
<feFlood flood-opacity="0" result="BackgroundImageFix"/>
<feColorMatrix in="SourceAlpha" type="matrix" values="0 0 0 0 0 0 0 0 0 0 0 0 0 0 0 0 0 0 127 0" result="hardAlpha"/>
<feOffset dy="9.71774"/>
<feGaussianBlur stdDeviation="29.1532"/>
<feComposite in2="hardAlpha" operator="out"/>
<feColorMatrix type="matrix" values="0 0 0 0 0.258824 0 0 0 0 0.352941 0 0 0 0 0.435294 0 0 0 0.2 0"/>
<feBlend mode="normal" in2="BackgroundImageFix" result="effect1_dropShadow_747_5160"/>
<feBlend mode="normal" in="SourceGraphic" in2="effect1_dropShadow_747_5160" result="shape"/>
</filter>
<filter id="filter2_d_747_5160" x="470.004" y="606.311" width="346.923" height="226.423" filterUnits="userSpaceOnUse" color-interpolation-filters="sRGB">
<feFlood flood-opacity="0" result="BackgroundImageFix"/>
<feColorMatrix in="SourceAlpha" type="matrix" values="0 0 0 0 0 0 0 0 0 0 0 0 0 0 0 0 0 0 127 0" result="hardAlpha"/>
<feOffset dy="9.71774"/>
<feGaussianBlur stdDeviation="29.1532"/>
<feComposite in2="hardAlpha" operator="out"/>
<feColorMatrix type="matrix" values="0 0 0 0 0.258824 0 0 0 0 0.352941 0 0 0 0 0.435294 0 0 0 0.2 0"/>
<feBlend mode="normal" in2="BackgroundImageFix" result="effect1_dropShadow_747_5160"/>
<feBlend mode="normal" in="SourceGraphic" in2="effect1_dropShadow_747_5160" result="shape"/>
</filter>
<clipPath id="clip0_747_5160">
<rect x="200" y="290" width="600" height="420" rx="15.2143" fill="white"/>
</clipPath>
</defs>
</svg>
